<svg xmlns="http://www.w3.org/2000/svg" xmlns:xlink="http://www.w3.org/1999/xlink" width="1920" zoomAndPan="magnify" viewBox="0 0 1440 809.999993" height="1080" preserveAspectRatio="xMidYMid meet" version="1.2"><defs><clipPath id="8388021c01"><path d="M 0 438.726562 L 1440 438.726562 L 1440 810 L 0 810 Z M 0 438.726562 "/></clipPath><clipPath id="0e98eb926b"><path d="M 1434.75 864.007812 L 5.25 864.007812 C 2.351562 864.007812 0 861.65625 0 858.757812 L 0 443.976562 C 0 441.074219 2.351562 438.726562 5.25 438.726562 L 1434.75 438.726562 C 1437.648438 438.726562 1440 441.074219 1440 443.976562 L 1440 858.757812 C 1440 861.65625 1437.648438 864.007812 1434.75 864.007812 Z M 1434.75 864.007812 "/></clipPath><filter x="0%" y="0%" width="100%" filterUnits="objectBoundingBox" id="08354b1c85" height="100%"><feColorMatrix values="0 0 0 0 1 0 0 0 0 1 0 0 0 0 1 0 0 0 1 0" type="matrix" in="SourceGraphic"/></filter><clipPath id="a1eab236aa"><path d="M 41 31 L 527 31 L 527 477 L 41 477 Z M 41 31 "/></clipPath><clipPath id="c890c048ef"><path d="M 7.785156 49.203125 L 494.542969 11.324219 L 527.886719 439.808594 L 41.128906 477.6875 Z M 7.785156 49.203125 "/></clipPath><clipPath id="f3b8216c6c"><path d="M 261.8125 36.070312 L 524.765625 423.070312 C 527.03125 426.40625 527.351562 430.699219 525.601562 434.332031 C 523.855469 437.96875 520.304688 440.398438 516.28125 440.710938 L 53.714844 476.707031 C 49.695312 477.019531 45.808594 475.167969 43.519531 471.847656 C 41.230469 468.527344 40.882812 464.238281 42.605469 460.589844 L 242.523438 37.574219 C 244.230469 33.957031 247.746094 31.535156 251.734375 31.222656 C 255.71875 30.914062 259.566406 32.765625 261.8125 36.070312 Z M 261.8125 36.070312 "/></clipPath><clipPath id="0a83f48a5c"><rect x="0" width="537" y="0" height="479"/></clipPath></defs><g id="26724da759"><rect x="0" width="1440" y="0" height="809.999993" style="fill:#ffffff;fill-opacity:1;stroke:none;"/><rect x="0" width="1440" y="0" height="809.999993" style="fill:#ffffff;fill-opacity:1;stroke:none;"/><g clip-rule="nonzero" clip-path="url(#8388021c01)"><g clip-rule="nonzero" clip-path="url(#0e98eb926b)"><path style=" stroke:none;fill-rule:nonzero;fill:#546fca;fill-opacity:1;" d="M 1440 864.007812 L -0.308594 864.007812 L -0.308594 438.726562 L 1440 438.726562 Z M 1440 864.007812 "/></g></g><path style=" stroke:none;fill-rule:nonzero;fill:#000000;fill-opacity:1;" d="M 894.234375 365.542969 C 892.425781 376.097656 899.519531 386.117188 910.074219 387.921875 C 920.628906 389.726562 930.648438 382.632812 932.453125 372.078125 C 934.261719 361.523438 927.167969 351.503906 916.613281 349.699219 C 906.058594 347.894531 896.039062 354.988281 894.234375 365.542969 Z M 894.234375 365.542969 "/><path style=" stroke:none;fill-rule:nonzero;fill:#ffbd59;fill-opacity:1;" d="M 912.328125 347.210938 C 911.472656 358.246094 912.171875 368.222656 915.832031 376.167969 C 917.96875 380.8125 921.121094 384.765625 925.570312 387.832031 C 941.921875 381.433594 956.59375 370.398438 970.960938 358.496094 C 977.421875 351.488281 980.316406 341.078125 979.457031 331.871094 C 978.339844 319.894531 970.886719 309.945312 956.679688 312.148438 C 942.417969 319.210938 927.660156 330.628906 912.328125 347.210938 Z M 912.328125 347.210938 "/><path style=" stroke:none;fill-rule:nonzero;fill:#ffbd59;fill-opacity:1;" d="M 915.832031 376.164062 C 917.96875 380.8125 921.121094 384.765625 925.570312 387.832031 C 941.921875 381.433594 956.59375 370.394531 970.960938 358.496094 C 977.421875 351.488281 980.320312 341.078125 979.457031 331.871094 C 965.363281 348.246094 944.316406 363.046875 915.832031 376.164062 Z M 915.832031 376.164062 "/><path style=" stroke:none;fill-rule:nonzero;fill:#000000;fill-opacity:1;" d="M 1017.535156 142.164062 C 1018.640625 156.039062 1016.425781 166.433594 1012.609375 175.15625 C 1012.609375 175.15625 1029.351562 173.183594 1029.351562 173.183594 C 1022.582031 165.011719 1020.824219 154.492188 1022.949219 142.164062 C 1022.949219 142.164062 1017.535156 142.164062 1017.535156 142.164062 Z M 1017.535156 142.164062 "/><path style=" stroke:none;fill-rule:nonzero;fill:#ffde59;fill-opacity:1;" d="M 1039.289062 182.101562 C 1039.289062 182.101562 1030.230469 182.859375 1030.230469 182.859375 C 1030.230469 182.859375 1001.210938 185.289062 1001.210938 185.289062 C 1002.753906 178.75 1007.546875 173.722656 1020.65625 172.53125 C 1022.722656 172.40625 1024.675781 172.328125 1026.484375 172.335938 C 1034.726562 172.375 1039.972656 174.238281 1039.289062 182.101562 Z M 1039.289062 182.101562 "/><path style=" stroke:none;fill-rule:nonzero;fill:#ffbd59;fill-opacity:1;" d="M 1039.289062 182.101562 C 1039.289062 182.101562 1030.230469 182.855469 1030.230469 182.855469 C 1031.8125 179.632812 1030.175781 176.082031 1026.484375 172.335938 C 1034.726562 172.375 1039.972656 174.238281 1039.289062 182.101562 Z M 1039.289062 182.101562 "/><path style=" stroke:none;fill-rule:nonzero;fill:#ff6d4d;fill-opacity:1;" d="M 1031.367188 134.808594 C 1031.367188 140.933594 1026.402344 145.894531 1020.28125 145.894531 C 1014.15625 145.894531 1009.195312 140.933594 1009.195312 134.808594 C 1009.195312 128.6875 1014.15625 123.722656 1020.28125 123.722656 C 1026.402344 123.722656 1031.367188 128.6875 1031.367188 134.808594 Z M 1031.367188 134.808594 "/><path style=" stroke:none;fill-rule:nonzero;fill:#ffde59;fill-opacity:1;" d="M 1095.539062 264.355469 C 1095.074219 266.683594 1093.617188 268.703125 1091.566406 269.90625 C 1078.496094 277.550781 1065.46875 283.132812 1052.472656 286.808594 C 1020.152344 295.960938 988.054688 293.304688 956.140625 281.222656 C 953.222656 280.117188 951.207031 277.410156 951.035156 274.296875 C 948.589844 230.808594 967.273438 189.539062 1016.984375 180.953125 C 1021.5625 180.164062 1026.222656 179.878906 1030.847656 180.199219 C 1030.847656 180.199219 1030.859375 180.199219 1030.859375 180.199219 C 1032.113281 180.285156 1033.367188 180.417969 1034.613281 180.59375 C 1074.25 186.210938 1103.386719 225.101562 1095.539062 264.355469 Z M 1095.539062 264.355469 "/><path style=" stroke:none;fill-rule:nonzero;fill:#ffbd59;fill-opacity:1;" d="M 1095.539062 264.355469 C 1095.074219 266.683594 1093.617188 268.703125 1091.566406 269.90625 C 1078.496094 277.550781 1065.46875 283.132812 1052.472656 286.808594 C 1068.128906 252.769531 1067.890625 217.695312 1030.847656 180.199219 C 1030.847656 180.199219 1030.859375 180.199219 1030.859375 180.199219 C 1032.113281 180.285156 1033.367188 180.417969 1034.613281 180.59375 C 1074.25 186.210938 1103.386719 225.101562 1095.539062 264.355469 Z M 1095.539062 264.355469 "/><path style=" stroke:none;fill-rule:nonzero;fill:#000000;fill-opacity:1;" d="M 1021.710938 207.304688 C 994.394531 214.519531 981.894531 232.480469 977.753906 245.882812 C 973.128906 267.667969 987.109375 272.175781 1020.640625 261.675781 C 1029.140625 259.015625 1038.148438 258.476562 1046.945312 259.878906 C 1078.527344 264.914062 1087.21875 249.585938 1070.8125 224.832031 C 1062.921875 213.753906 1053.195312 207.871094 1041.632812 206.085938 C 1034.992188 205.0625 1028.207031 205.589844 1021.710938 207.304688 Z M 1021.710938 207.304688 "/><path style=" stroke:none;fill-rule:nonzero;fill:#000000;fill-opacity:1;" d="M 1135.132812 335.242188 C 1141.457031 339.1875 1146 343.976562 1148.683594 349.636719 C 1148.683594 349.636719 1121.324219 378.375 1121.324219 378.375 C 1115.386719 374.425781 1113.261719 368.890625 1115.894531 361.386719 C 1115.894531 361.386719 1135.132812 335.242188 1135.132812 335.242188 Z M 1135.132812 335.242188 "/><path style=" stroke:none;fill-rule:nonzero;fill:#ffde59;fill-opacity:1;" d="M 1138.898438 332.835938 C 1139.238281 333.261719 1139.261719 333.867188 1138.953125 334.320312 C 1138.953125 334.320312 1135.089844 340.007812 1135.089844 340.007812 C 1135.089844 340.007812 1115.253906 369.226562 1115.253906 369.226562 C 1114.8125 369.875 1113.914062 370.023438 1113.289062 369.546875 C 1085.523438 348.417969 1067.207031 325.113281 1081.578125 306.46875 C 1082.632812 305.097656 1083.867188 303.753906 1085.285156 302.429688 C 1103.734375 295.03125 1121.417969 310.832031 1138.898438 332.835938 Z M 1138.898438 332.835938 "/><path style=" stroke:none;fill-rule:nonzero;fill:#ffbd59;fill-opacity:1;" d="M 1138.925781 334.363281 C 1138.925781 334.363281 1135.089844 340.007812 1135.089844 340.007812 C 1119.820312 319.40625 1102.324219 306.9375 1081.578125 306.46875 C 1082.632812 305.097656 1083.867188 303.753906 1085.285156 302.429688 C 1103.726562 295.039062 1121.398438 310.8125 1138.863281 332.792969 C 1139.222656 333.246094 1139.25 333.882812 1138.925781 334.363281 Z M 1138.925781 334.363281 "/><path style=" stroke:none;fill-rule:nonzero;fill:#ffde59;fill-opacity:1;" d="M 1186.808594 397.542969 C 1187.398438 399.554688 1186.734375 401.71875 1185.109375 403.042969 C 1182.132812 405.46875 1178.964844 407.691406 1175.613281 409.722656 C 1167.597656 414.582031 1158.519531 418.328125 1148.492188 421.074219 C 1147.722656 421.285156 1146.894531 421.199219 1146.1875 420.828125 C 1131.535156 413.152344 1119.773438 401.632812 1116.453125 378.839844 C 1116.339844 378.046875 1116.742188 377.25 1117.472656 376.914062 C 1121.445312 375.105469 1132.308594 364.527344 1139.929688 355.855469 C 1143.863281 351.375 1146.933594 347.402344 1147.746094 345.410156 C 1147.953125 344.902344 1148.578125 344.714844 1149.019531 345.039062 C 1170.785156 360.917969 1181.308594 378.789062 1186.808594 397.542969 Z M 1186.808594 397.542969 "/><path style=" stroke:none;fill-rule:nonzero;fill:#ffbd59;fill-opacity:1;" d="M 1185.039062 403.097656 C 1182.085938 405.503906 1178.9375 407.707031 1175.613281 409.722656 C 1168.519531 387.722656 1157.519531 369.011719 1139.929688 355.855469 C 1143.875 351.363281 1146.945312 347.386719 1147.75 345.394531 C 1147.953125 344.894531 1148.570312 344.710938 1149.007812 345.03125 C 1170.78125 360.914062 1181.308594 378.785156 1186.8125 397.542969 C 1187.40625 399.578125 1186.683594 401.761719 1185.039062 403.097656 Z M 1185.039062 403.097656 "/><path style=" stroke:none;fill-rule:nonzero;fill:#000000;fill-opacity:1;" d="M 1154.90625 427.726562 C 1165.46875 419.660156 1175.875 413.4375 1185.804688 412.9375 C 1187.164062 412.871094 1188.480469 413.488281 1189.269531 414.597656 C 1199.5625 429.085938 1196.660156 440.832031 1187.171875 451.214844 C 1182.8125 453.957031 1179.792969 453.046875 1178.554688 447.289062 C 1172.394531 452.71875 1167.777344 450.921875 1164.726562 441.738281 C 1161.71875 445.527344 1159.046875 446.207031 1156.855469 442.40625 C 1155.960938 440.851562 1155.519531 439.074219 1155.484375 437.28125 C 1155.441406 435.28125 1155 433.363281 1154.066406 431.539062 C 1153.398438 430.226562 1153.734375 428.621094 1154.90625 427.726562 Z M 1154.90625 427.726562 "/><path style=" stroke:none;fill-rule:nonzero;fill:#ffbd59;fill-opacity:1;" d="M 950.824219 319.421875 C 950.824219 319.421875 1111.09375 308.167969 1111.09375 308.167969 C 1117.921875 368.746094 1098.953125 428.113281 1052.535156 442.832031 C 1041.144531 446.445312 1028.972656 446.691406 1017.304688 444.097656 C 962.339844 431.882812 948.464844 382.914062 950.824219 319.421875 Z M 950.824219 319.421875 "/><path style=" stroke:none;fill-rule:nonzero;fill:#ffde59;fill-opacity:1;" d="M 961.617188 316.917969 C 961.617188 316.917969 1104.078125 306.585938 1104.078125 306.585938 C 1110.148438 362.210938 1093.285156 416.71875 1052.027344 430.234375 C 1041.902344 433.550781 1031.082031 433.78125 1020.710938 431.398438 C 971.851562 420.179688 959.519531 375.21875 961.617188 316.917969 Z M 961.617188 316.917969 "/><path style=" stroke:none;fill-rule:nonzero;fill:#000000;fill-opacity:1;" d="M 1078.296875 346.148438 C 1083.429688 345.878906 1089.175781 344.636719 1095.335938 342.726562 C 1096.953125 342.226562 1098.605469 343.433594 1098.621094 345.128906 C 1098.738281 357.527344 1097.011719 368.523438 1093.28125 377.984375 C 1092.820312 379.160156 1091.910156 380.109375 1090.753906 380.605469 C 1082.5 384.128906 1075.933594 384.152344 1070.582031 381.648438 C 1069.574219 381.175781 1069.003906 380.089844 1069.21875 378.996094 C 1069.21875 378.996094 1075.101562 348.929688 1075.101562 348.929688 C 1075.40625 347.378906 1076.71875 346.230469 1078.296875 346.148438 Z M 1078.296875 346.148438 "/><path style=" stroke:none;fill-rule:nonzero;fill:#ff6d4d;fill-opacity:1;" d="M 1078.625 352.253906 C 1078.625 352.253906 1076.988281 358.5625 1076.988281 358.5625 C 1076.878906 358.988281 1077.21875 359.390625 1077.65625 359.355469 C 1077.65625 359.355469 1093.804688 357.972656 1093.804688 357.972656 C 1094.097656 357.945312 1094.332031 357.726562 1094.378906 357.4375 C 1094.378906 357.4375 1095.410156 350.859375 1095.410156 350.859375 C 1095.472656 350.449219 1095.132812 350.085938 1094.714844 350.132812 C 1094.714844 350.132812 1079.171875 351.78125 1079.171875 351.78125 C 1078.90625 351.808594 1078.691406 351.996094 1078.625 352.253906 Z M 1078.625 352.253906 "/><path style=" stroke:none;fill-rule:nonzero;fill:#ff6d4d;fill-opacity:1;" d="M 1077.316406 362.9375 C 1077.316406 362.9375 1091.558594 361.914062 1091.558594 361.914062 C 1092.480469 361.847656 1093.195312 362.707031 1092.960938 363.597656 C 1092.960938 363.597656 1092.046875 367.121094 1092.046875 367.121094 C 1091.902344 367.6875 1091.40625 368.09375 1090.824219 368.128906 C 1090.824219 368.128906 1076.90625 368.992188 1076.90625 368.992188 C 1076.015625 369.046875 1075.316406 368.234375 1075.503906 367.359375 C 1075.503906 367.359375 1076.257812 363.851562 1076.257812 363.851562 C 1076.367188 363.347656 1076.796875 362.972656 1077.316406 362.9375 Z M 1077.316406 362.9375 "/><path style=" stroke:none;fill-rule:nonzero;fill:#ff6d4d;fill-opacity:1;" d="M 1076.175781 373.054688 C 1076.175781 373.054688 1089.980469 371.980469 1089.980469 371.980469 C 1090.609375 371.929688 1091.101562 372.511719 1090.949219 373.121094 C 1090.949219 373.121094 1089.925781 377.296875 1089.925781 377.296875 C 1089.824219 377.703125 1089.464844 377.988281 1089.046875 378 C 1089.046875 378 1075.046875 378.324219 1075.046875 378.324219 C 1074.398438 378.339844 1073.9375 377.703125 1074.152344 377.089844 C 1074.152344 377.089844 1075.378906 373.664062 1075.378906 373.664062 C 1075.5 373.320312 1075.8125 373.082031 1076.175781 373.054688 Z M 1076.175781 373.054688 "/><path style=" stroke:none;fill-rule:nonzero;fill:#000000;fill-opacity:1;" d="M 950.824219 319.421875 C 951.535156 339.558594 1113.570312 335.167969 1111.066406 307.183594 C 1088.292969 283.671875 956.089844 298.933594 950.824219 319.421875 Z M 950.824219 319.421875 "/><path style=" stroke:none;fill-rule:nonzero;fill:#ffde59;fill-opacity:1;" d="M 1064.097656 465.460938 C 1063.746094 465.964844 1063.261719 466.367188 1062.703125 466.621094 C 1056.515625 469.449219 1050.363281 471.398438 1044.242188 472.480469 C 1030.410156 474.929688 1016.746094 472.933594 1003.242188 466.636719 C 1002.589844 466.328125 1002.046875 465.820312 1001.699219 465.191406 C 999.796875 461.75 999.273438 458.363281 1000.050781 455.03125 C 1000.484375 453.167969 1002.378906 452.03125 1004.234375 452.5 C 1018.589844 456.117188 1032.933594 456.988281 1047.265625 454.796875 C 1052.34375 454.027344 1057.425781 452.863281 1062.507812 451.308594 C 1064.617188 450.667969 1066.792969 452.171875 1066.925781 454.371094 C 1067.1875 458.546875 1066.332031 462.277344 1064.097656 465.460938 Z M 1064.097656 465.460938 "/><path style=" stroke:none;fill-rule:nonzero;fill:#ffbd59;fill-opacity:1;" d="M 1064.09375 465.460938 C 1063.746094 465.964844 1063.261719 466.367188 1062.703125 466.621094 C 1056.515625 469.449219 1050.363281 471.398438 1044.242188 472.480469 C 1050.371094 467.804688 1052.007812 462.0625 1047.265625 454.796875 C 1052.34375 454.027344 1057.425781 452.863281 1062.507812 451.3125 C 1064.617188 450.667969 1066.792969 452.171875 1066.925781 454.371094 C 1067.1875 458.546875 1066.332031 462.277344 1064.09375 465.460938 Z M 1064.09375 465.460938 "/><path style=" stroke:none;fill-rule:nonzero;fill:#ffde59;fill-opacity:1;" d="M 1057.261719 484.847656 C 1057.089844 485.5625 1056.851562 486.277344 1056.542969 486.984375 C 1055.675781 488.992188 1053.929688 490.507812 1051.832031 491.132812 C 1048.910156 492.007812 1045.945312 492.726562 1042.9375 493.300781 C 1034.722656 494.867188 1026.199219 495.324219 1017.367188 494.722656 C 1014.308594 494.511719 1011.515625 492.871094 1009.894531 490.273438 C 1009.050781 488.9375 1008.511719 487.664062 1008.316406 486.464844 C 1007.851562 483.695312 1010.113281 481.210938 1012.917969 481.351562 C 1024.128906 481.902344 1034.863281 481.777344 1044.910156 480.652344 C 1047.4375 480.375 1049.917969 480.027344 1052.351562 479.613281 C 1055.390625 479.089844 1057.960938 481.84375 1057.261719 484.847656 Z M 1057.261719 484.847656 "/><path style=" stroke:none;fill-rule:nonzero;fill:#ffbd59;fill-opacity:1;" d="M 1057.261719 484.847656 C 1057.089844 485.5625 1056.851562 486.277344 1056.542969 486.984375 C 1055.675781 488.992188 1053.929688 490.507812 1051.832031 491.132812 C 1048.910156 492.007812 1045.945312 492.726562 1042.9375 493.300781 C 1045.453125 489.707031 1046.339844 485.570312 1044.910156 480.652344 C 1047.4375 480.375 1049.917969 480.027344 1052.351562 479.613281 C 1055.390625 479.089844 1057.960938 481.84375 1057.261719 484.847656 Z M 1057.261719 484.847656 "/><path style=" stroke:none;fill-rule:nonzero;fill:#ffde59;fill-opacity:1;" d="M 894.359375 355.8125 C 896.730469 335.433594 910.507812 319.890625 934.179688 298.515625 C 935.960938 296.910156 938.828125 297.125 940.28125 298.984375 C 940.28125 298.984375 964.019531 329.335938 964.019531 329.335938 C 964.953125 330.53125 965.058594 332.132812 964.296875 333.441406 C 951.671875 355.105469 937.664062 371.445312 917.476562 374.070312 C 916.34375 374.214844 916.136719 374.753906 913.558594 373.125 C 913.558594 373.125 895.785156 359.144531 895.785156 359.144531 C 894.746094 358.332031 894.210938 357.078125 894.359375 355.8125 Z M 894.359375 355.8125 "/><path style=" stroke:none;fill-rule:nonzero;fill:#000000;fill-opacity:1;" d="M 978.132812 272.457031 C 978.132812 272.457031 972.292969 267.804688 972.292969 267.804688 C 972.292969 267.804688 951.414062 294.023438 951.414062 294.023438 C 951.414062 294.023438 957.253906 298.675781 957.253906 298.675781 C 957.253906 298.675781 978.132812 272.457031 978.132812 272.457031 Z M 978.132812 272.457031 "/><path style=" stroke:none;fill-rule:nonzero;fill:#ff6d4d;fill-opacity:1;" d="M 1013.679688 205.839844 C 993.492188 196.800781 969.800781 205.835938 960.761719 226.019531 C 951.726562 246.203125 960.757812 269.898438 980.945312 278.933594 C 1001.128906 287.976562 1024.820312 278.941406 1033.863281 258.753906 C 1042.902344 238.570312 1033.863281 214.875 1013.679688 205.839844 Z M 1026.527344 255.46875 C 1019.300781 271.605469 1000.363281 278.824219 984.230469 271.601562 C 968.097656 264.375 960.871094 245.4375 968.097656 229.304688 C 975.328125 213.171875 994.261719 205.949219 1010.394531 213.175781 C 1026.53125 220.402344 1033.75 239.335938 1026.527344 255.46875 Z M 1026.527344 255.46875 "/><path style=" stroke:none;fill-rule:nonzero;fill:#ff6d4d;fill-opacity:1;" d="M 961.820312 291.582031 C 961.820312 291.582031 957.304688 287.984375 957.304688 287.984375 C 955.207031 286.3125 952.148438 286.65625 950.472656 288.757812 C 950.472656 288.757812 924.113281 321.855469 924.113281 321.855469 C 922.441406 323.957031 922.785156 327.015625 924.886719 328.6875 C 924.886719 328.6875 929.402344 332.28125 929.402344 332.28125 C 931.503906 333.957031 934.5625 333.609375 936.234375 331.507812 C 936.234375 331.507812 962.59375 298.410156 962.59375 298.410156 C 964.265625 296.3125 963.921875 293.253906 961.820312 291.582031 Z M 961.820312 291.582031 "/><path style=" stroke:none;fill-rule:nonzero;fill:#000000;fill-opacity:1;" d="M 948.019531 282.726562 C 930.15625 281.996094 925.605469 293.402344 923.421875 306.96875 C 923.105469 308.941406 923.363281 310.988281 924.238281 312.789062 C 924.261719 312.835938 924.289062 312.886719 924.3125 312.933594 C 927.0625 318.433594 934.148438 319.992188 939.171875 316.441406 C 945.601562 311.902344 950.699219 305.167969 954.378906 296.085938 C 955.027344 294.492188 955.246094 292.746094 955.023438 291.039062 C 954.375 286.054688 952.464844 282.726562 948.019531 282.726562 Z M 948.019531 282.726562 "/><path style=" stroke:none;fill-rule:nonzero;fill:#000000;fill-opacity:1;" d="M 953.988281 316.101562 C 949.882812 322.335938 944.128906 325.792969 941.140625 323.820312 C 938.148438 321.851562 939.050781 315.199219 943.160156 308.964844 C 947.265625 302.730469 953.015625 299.277344 956.007812 301.246094 C 959 303.214844 958.097656 309.867188 953.988281 316.101562 Z M 953.988281 316.101562 "/><path style="fill:none;stroke-width:7;stroke-linecap:round;stroke-linejoin:round;stroke:#ff6d4d;stroke-opacity:1;stroke-miterlimit:4;" d="M 13.480887 -14.686185 C 13.480887 -14.686185 -13.485833 7.687825 -13.485833 7.687825 C -13.485833 7.687825 13.480887 14.68624 13.480887 14.68624 " transform="matrix(0.410807,0,0,0.410807,1054.114297,239.111317)"/><path style=" stroke:none;fill-rule:nonzero;fill:#ff6d4d;fill-opacity:1;" d="M 1006.929688 244.796875 C 1006.929688 249.203125 1004.984375 252.773438 1002.589844 252.773438 C 1000.191406 252.773438 998.25 249.203125 998.25 244.796875 C 998.25 240.390625 1000.191406 236.820312 1002.589844 236.820312 C 1004.984375 236.820312 1006.929688 240.390625 1006.929688 244.796875 Z M 1006.929688 244.796875 "/><g mask="url(#d122f1702a)" transform="matrix(1,0,0,1,287,53)"><g clip-path="url(#0a83f48a5c)"><g clip-rule="nonzero" clip-path="url(#a1eab236aa)"><g clip-rule="nonzero" clip-path="url(#c890c048ef)"><g clip-rule="nonzero" clip-path="url(#f3b8216c6c)"><path style=" stroke:none;fill-rule:nonzero;fill:#fc521b;fill-opacity:1;" d="M 0.128906 39.453125 L 502.3125 0.375 L 536.457031 439.140625 L 34.273438 478.222656 Z M 0.128906 39.453125 "/></g></g></g></g><mask id="d122f1702a"><g filter="url(#08354b1c85)"><rect x="0" width="1440" y="0" height="809.999993" style="fill:#000000;fill-opacity:0.64;stroke:none;"/></g></mask></g></g></svg>