<svg xmlns="http://www.w3.org/2000/svg" xmlns:xlink="http://www.w3.org/1999/xlink" width="1920" zoomAndPan="magnify" viewBox="0 0 1440 809.999993" height="1080" preserveAspectRatio="xMidYMid meet" version="1.2"><defs><clipPath id="314ee2e138"><path d="M 715 47 L 1440 47 L 1440 772 L 715 772 Z M 715 47 "/></clipPath><clipPath id="b9e8b5e893"><path d="M -3.546875 763.996094 L -0.00390625 44.003906 L 1439.980469 51.089844 L 1436.4375 771.082031 Z M -3.546875 763.996094 "/></clipPath><clipPath id="1e57b56352"><path d="M -3.546875 763.996094 L -0.00390625 44.003906 L 1439.980469 51.089844 L 1436.4375 771.082031 Z M -3.546875 763.996094 "/></clipPath><clipPath id="558d107dd5"><path d="M 1304 51 L 1309 51 L 1309 770 L 1304 770 Z M 1304 51 "/></clipPath><clipPath id="17d4b7988c"><path d="M -3.546875 763.996094 L -0.00390625 44.003906 L 1439.980469 51.089844 L 1436.4375 771.082031 Z M -3.546875 763.996094 "/></clipPath><clipPath id="72847d8ff9"><path d="M -3.546875 763.996094 L -0.00390625 44.003906 L 1439.980469 51.089844 L 1436.4375 771.082031 Z M -3.546875 763.996094 "/></clipPath><clipPath id="f950bd19c7"><path d="M 1238 50 L 1244 50 L 1244 770 L 1238 770 Z M 1238 50 "/></clipPath><clipPath id="f529f02cdc"><path d="M -3.546875 763.996094 L -0.00390625 44.003906 L 1439.980469 51.089844 L 1436.4375 771.082031 Z M -3.546875 763.996094 "/></clipPath><clipPath id="0f135590f6"><path d="M -3.546875 763.996094 L -0.00390625 44.003906 L 1439.980469 51.089844 L 1436.4375 771.082031 Z M -3.546875 763.996094 "/></clipPath><clipPath id="dfa990459e"><path d="M 1173 50 L 1178 50 L 1178 770 L 1173 770 Z M 1173 50 "/></clipPath><clipPath id="18deae8658"><path d="M -3.546875 763.996094 L -0.00390625 44.003906 L 1439.980469 51.089844 L 1436.4375 771.082031 Z M -3.546875 763.996094 "/></clipPath><clipPath id="e327ec41ce"><path d="M -3.546875 763.996094 L -0.00390625 44.003906 L 1439.980469 51.089844 L 1436.4375 771.082031 Z M -3.546875 763.996094 "/></clipPath><clipPath id="eed50d723a"><path d="M 1108 50 L 1113 50 L 1113 769 L 1108 769 Z M 1108 50 "/></clipPath><clipPath id="0168812235"><path d="M -3.546875 763.996094 L -0.00390625 44.003906 L 1439.980469 51.089844 L 1436.4375 771.082031 Z M -3.546875 763.996094 "/></clipPath><clipPath id="a46dd3b38d"><path d="M -3.546875 763.996094 L -0.00390625 44.003906 L 1439.980469 51.089844 L 1436.4375 771.082031 Z M -3.546875 763.996094 "/></clipPath><clipPath id="ccdd6d2ead"><path d="M 1042 49 L 1048 49 L 1048 769 L 1042 769 Z M 1042 49 "/></clipPath><clipPath id="5adc9369a7"><path d="M -3.546875 763.996094 L -0.00390625 44.003906 L 1439.980469 51.089844 L 1436.4375 771.082031 Z M -3.546875 763.996094 "/></clipPath><clipPath id="164d6d40a5"><path d="M -3.546875 763.996094 L -0.00390625 44.003906 L 1439.980469 51.089844 L 1436.4375 771.082031 Z M -3.546875 763.996094 "/></clipPath><clipPath id="778aa4a21e"><path d="M 977 49 L 982 49 L 982 769 L 977 769 Z M 977 49 "/></clipPath><clipPath id="73e6b89bba"><path d="M -3.546875 763.996094 L -0.00390625 44.003906 L 1439.980469 51.089844 L 1436.4375 771.082031 Z M -3.546875 763.996094 "/></clipPath><clipPath id="07cfe25f94"><path d="M -3.546875 763.996094 L -0.00390625 44.003906 L 1439.980469 51.089844 L 1436.4375 771.082031 Z M -3.546875 763.996094 "/></clipPath><clipPath id="47be89e5d4"><path d="M 911 49 L 917 49 L 917 768 L 911 768 Z M 911 49 "/></clipPath><clipPath id="1dd561da47"><path d="M -3.546875 763.996094 L -0.00390625 44.003906 L 1439.980469 51.089844 L 1436.4375 771.082031 Z M -3.546875 763.996094 "/></clipPath><clipPath id="6f0ff70c25"><path d="M -3.546875 763.996094 L -0.00390625 44.003906 L 1439.980469 51.089844 L 1436.4375 771.082031 Z M -3.546875 763.996094 "/></clipPath><clipPath id="f6dc3ab558"><path d="M 846 48 L 852 48 L 852 768 L 846 768 Z M 846 48 "/></clipPath><clipPath id="f252af5ba4"><path d="M -3.546875 763.996094 L -0.00390625 44.003906 L 1439.980469 51.089844 L 1436.4375 771.082031 Z M -3.546875 763.996094 "/></clipPath><clipPath id="e6729e32f2"><path d="M -3.546875 763.996094 L -0.00390625 44.003906 L 1439.980469 51.089844 L 1436.4375 771.082031 Z M -3.546875 763.996094 "/></clipPath><clipPath id="f7a07152ea"><path d="M 781 48 L 786 48 L 786 768 L 781 768 Z M 781 48 "/></clipPath><clipPath id="7e5407f92f"><path d="M -3.546875 763.996094 L -0.00390625 44.003906 L 1439.980469 51.089844 L 1436.4375 771.082031 Z M -3.546875 763.996094 "/></clipPath><clipPath id="4e3abfc458"><path d="M -3.546875 763.996094 L -0.00390625 44.003906 L 1439.980469 51.089844 L 1436.4375 771.082031 Z M -3.546875 763.996094 "/></clipPath><clipPath id="9a56cd98c0"><path d="M 719 112 L 1439 112 L 1439 118 L 719 118 Z M 719 112 "/></clipPath><clipPath id="b5b7dffbc0"><path d="M -3.546875 763.996094 L -0.00390625 44.003906 L 1439.980469 51.089844 L 1436.4375 771.082031 Z M -3.546875 763.996094 "/></clipPath><clipPath id="973d9ac868"><path d="M -3.546875 763.996094 L -0.00390625 44.003906 L 1439.980469 51.089844 L 1436.4375 771.082031 Z M -3.546875 763.996094 "/></clipPath><clipPath id="16beaeccb2"><path d="M 719 178 L 1439 178 L 1439 183 L 719 183 Z M 719 178 "/></clipPath><clipPath id="7910a477aa"><path d="M -3.546875 763.996094 L -0.00390625 44.003906 L 1439.980469 51.089844 L 1436.4375 771.082031 Z M -3.546875 763.996094 "/></clipPath><clipPath id="c0dbb6f882"><path d="M -3.546875 763.996094 L -0.00390625 44.003906 L 1439.980469 51.089844 L 1436.4375 771.082031 Z M -3.546875 763.996094 "/></clipPath><clipPath id="1ddaf42ad1"><path d="M 718 243 L 1438 243 L 1438 249 L 718 249 Z M 718 243 "/></clipPath><clipPath id="d5cba48a7a"><path d="M -3.546875 763.996094 L -0.00390625 44.003906 L 1439.980469 51.089844 L 1436.4375 771.082031 Z M -3.546875 763.996094 "/></clipPath><clipPath id="92a6d73a84"><path d="M -3.546875 763.996094 L -0.00390625 44.003906 L 1439.980469 51.089844 L 1436.4375 771.082031 Z M -3.546875 763.996094 "/></clipPath><clipPath id="00008b1fa2"><path d="M 718 309 L 1438 309 L 1438 314 L 718 314 Z M 718 309 "/></clipPath><clipPath id="001c1737ef"><path d="M -3.546875 763.996094 L -0.00390625 44.003906 L 1439.980469 51.089844 L 1436.4375 771.082031 Z M -3.546875 763.996094 "/></clipPath><clipPath id="280a9e6442"><path d="M -3.546875 763.996094 L -0.00390625 44.003906 L 1439.980469 51.089844 L 1436.4375 771.082031 Z M -3.546875 763.996094 "/></clipPath><clipPath id="f79f2ceb21"><path d="M 718 374 L 1438 374 L 1438 379 L 718 379 Z M 718 374 "/></clipPath><clipPath id="2c7d094e4a"><path d="M -3.546875 763.996094 L -0.00390625 44.003906 L 1439.980469 51.089844 L 1436.4375 771.082031 Z M -3.546875 763.996094 "/></clipPath><clipPath id="ee3194d9b6"><path d="M -3.546875 763.996094 L -0.00390625 44.003906 L 1439.980469 51.089844 L 1436.4375 771.082031 Z M -3.546875 763.996094 "/></clipPath><clipPath id="bc269acacf"><path d="M 717 439 L 1437 439 L 1437 445 L 717 445 Z M 717 439 "/></clipPath><clipPath id="9cbfbf7ebb"><path d="M -3.546875 763.996094 L -0.00390625 44.003906 L 1439.980469 51.089844 L 1436.4375 771.082031 Z M -3.546875 763.996094 "/></clipPath><clipPath id="d8a5a3ad7c"><path d="M -3.546875 763.996094 L -0.00390625 44.003906 L 1439.980469 51.089844 L 1436.4375 771.082031 Z M -3.546875 763.996094 "/></clipPath><clipPath id="45e6f6392c"><path d="M 717 505 L 1437 505 L 1437 510 L 717 510 Z M 717 505 "/></clipPath><clipPath id="944fc3078d"><path d="M -3.546875 763.996094 L -0.00390625 44.003906 L 1439.980469 51.089844 L 1436.4375 771.082031 Z M -3.546875 763.996094 "/></clipPath><clipPath id="d47a0f73ad"><path d="M -3.546875 763.996094 L -0.00390625 44.003906 L 1439.980469 51.089844 L 1436.4375 771.082031 Z M -3.546875 763.996094 "/></clipPath><clipPath id="1bfc40f5cb"><path d="M 717 570 L 1437 570 L 1437 575 L 717 575 Z M 717 570 "/></clipPath><clipPath id="6051abcc49"><path d="M -3.546875 763.996094 L -0.00390625 44.003906 L 1439.980469 51.089844 L 1436.4375 771.082031 Z M -3.546875 763.996094 "/></clipPath><clipPath id="3a7f18026a"><path d="M -3.546875 763.996094 L -0.00390625 44.003906 L 1439.980469 51.089844 L 1436.4375 771.082031 Z M -3.546875 763.996094 "/></clipPath><clipPath id="71e778c2a3"><path d="M 717 635 L 1436 635 L 1436 641 L 717 641 Z M 717 635 "/></clipPath><clipPath id="26fbbecc16"><path d="M -3.546875 763.996094 L -0.00390625 44.003906 L 1439.980469 51.089844 L 1436.4375 771.082031 Z M -3.546875 763.996094 "/></clipPath><clipPath id="d03a3d91c4"><path d="M -3.546875 763.996094 L -0.00390625 44.003906 L 1439.980469 51.089844 L 1436.4375 771.082031 Z M -3.546875 763.996094 "/></clipPath><clipPath id="46008f8b7e"><path d="M 716 701 L 1436 701 L 1436 706 L 716 706 Z M 716 701 "/></clipPath><clipPath id="7f638998f8"><path d="M -3.546875 763.996094 L -0.00390625 44.003906 L 1439.980469 51.089844 L 1436.4375 771.082031 Z M -3.546875 763.996094 "/></clipPath><clipPath id="1b1e980b5b"><path d="M -3.546875 763.996094 L -0.00390625 44.003906 L 1439.980469 51.089844 L 1436.4375 771.082031 Z M -3.546875 763.996094 "/></clipPath><clipPath id="e3373b77b3"><path d="M 0 44 L 720 44 L 720 768 L 0 768 Z M 0 44 "/></clipPath><clipPath id="77e3bb4051"><path d="M -3.546875 763.996094 L -0.00390625 44.003906 L 1439.980469 51.089844 L 1436.4375 771.082031 Z M -3.546875 763.996094 "/></clipPath><clipPath id="c3b90bdd56"><path d="M -3.546875 763.996094 L -0.00390625 44.003906 L 1439.980469 51.089844 L 1436.4375 771.082031 Z M -3.546875 763.996094 "/></clipPath><clipPath id="e057db803c"><path d="M 650 47 L 656 47 L 656 767 L 650 767 Z M 650 47 "/></clipPath><clipPath id="6ef84a3c4b"><path d="M -3.546875 763.996094 L -0.00390625 44.003906 L 1439.980469 51.089844 L 1436.4375 771.082031 Z M -3.546875 763.996094 "/></clipPath><clipPath id="f712be8890"><path d="M -3.546875 763.996094 L -0.00390625 44.003906 L 1439.980469 51.089844 L 1436.4375 771.082031 Z M -3.546875 763.996094 "/></clipPath><clipPath id="f7c00a146a"><path d="M 585 47 L 590 47 L 590 767 L 585 767 Z M 585 47 "/></clipPath><clipPath id="4da2694211"><path d="M -3.546875 763.996094 L -0.00390625 44.003906 L 1439.980469 51.089844 L 1436.4375 771.082031 Z M -3.546875 763.996094 "/></clipPath><clipPath id="6af2627a8e"><path d="M -3.546875 763.996094 L -0.00390625 44.003906 L 1439.980469 51.089844 L 1436.4375 771.082031 Z M -3.546875 763.996094 "/></clipPath><clipPath id="8519b9eb41"><path d="M 519 47 L 525 47 L 525 767 L 519 767 Z M 519 47 "/></clipPath><clipPath id="d435b42c43"><path d="M -3.546875 763.996094 L -0.00390625 44.003906 L 1439.980469 51.089844 L 1436.4375 771.082031 Z M -3.546875 763.996094 "/></clipPath><clipPath id="3e744b971d"><path d="M -3.546875 763.996094 L -0.00390625 44.003906 L 1439.980469 51.089844 L 1436.4375 771.082031 Z M -3.546875 763.996094 "/></clipPath><clipPath id="79af41f92a"><path d="M 454 46 L 460 46 L 460 766 L 454 766 Z M 454 46 "/></clipPath><clipPath id="e1d56580e4"><path d="M -3.546875 763.996094 L -0.00390625 44.003906 L 1439.980469 51.089844 L 1436.4375 771.082031 Z M -3.546875 763.996094 "/></clipPath><clipPath id="89e5c11a14"><path d="M -3.546875 763.996094 L -0.00390625 44.003906 L 1439.980469 51.089844 L 1436.4375 771.082031 Z M -3.546875 763.996094 "/></clipPath><clipPath id="44a5eb0b24"><path d="M 389 46 L 394 46 L 394 766 L 389 766 Z M 389 46 "/></clipPath><clipPath id="f166be14db"><path d="M -3.546875 763.996094 L -0.00390625 44.003906 L 1439.980469 51.089844 L 1436.4375 771.082031 Z M -3.546875 763.996094 "/></clipPath><clipPath id="99c0d2c136"><path d="M -3.546875 763.996094 L -0.00390625 44.003906 L 1439.980469 51.089844 L 1436.4375 771.082031 Z M -3.546875 763.996094 "/></clipPath><clipPath id="5b6590b173"><path d="M 323 46 L 329 46 L 329 766 L 323 766 Z M 323 46 "/></clipPath><clipPath id="411196a57f"><path d="M -3.546875 763.996094 L -0.00390625 44.003906 L 1439.980469 51.089844 L 1436.4375 771.082031 Z M -3.546875 763.996094 "/></clipPath><clipPath id="92f9d6d831"><path d="M -3.546875 763.996094 L -0.00390625 44.003906 L 1439.980469 51.089844 L 1436.4375 771.082031 Z M -3.546875 763.996094 "/></clipPath><clipPath id="b4845d73f6"><path d="M 258 45 L 263 45 L 263 765 L 258 765 Z M 258 45 "/></clipPath><clipPath id="ce3681aad9"><path d="M -3.546875 763.996094 L -0.00390625 44.003906 L 1439.980469 51.089844 L 1436.4375 771.082031 Z M -3.546875 763.996094 "/></clipPath><clipPath id="007277dde9"><path d="M -3.546875 763.996094 L -0.00390625 44.003906 L 1439.980469 51.089844 L 1436.4375 771.082031 Z M -3.546875 763.996094 "/></clipPath><clipPath id="24114054ac"><path d="M 193 45 L 198 45 L 198 765 L 193 765 Z M 193 45 "/></clipPath><clipPath id="458c75b100"><path d="M -3.546875 763.996094 L -0.00390625 44.003906 L 1439.980469 51.089844 L 1436.4375 771.082031 Z M -3.546875 763.996094 "/></clipPath><clipPath id="c5122b48c8"><path d="M -3.546875 763.996094 L -0.00390625 44.003906 L 1439.980469 51.089844 L 1436.4375 771.082031 Z M -3.546875 763.996094 "/></clipPath><clipPath id="cbb7f90929"><path d="M 127 45 L 133 45 L 133 765 L 127 765 Z M 127 45 "/></clipPath><clipPath id="1fb7382d58"><path d="M -3.546875 763.996094 L -0.00390625 44.003906 L 1439.980469 51.089844 L 1436.4375 771.082031 Z M -3.546875 763.996094 "/></clipPath><clipPath id="719aaaab45"><path d="M -3.546875 763.996094 L -0.00390625 44.003906 L 1439.980469 51.089844 L 1436.4375 771.082031 Z M -3.546875 763.996094 "/></clipPath><clipPath id="9f715356e7"><path d="M 0 109 L 720 109 L 720 114 L 0 114 Z M 0 109 "/></clipPath><clipPath id="f38fd46150"><path d="M -3.546875 763.996094 L -0.00390625 44.003906 L 1439.980469 51.089844 L 1436.4375 771.082031 Z M -3.546875 763.996094 "/></clipPath><clipPath id="59bc5ebb85"><path d="M -3.546875 763.996094 L -0.00390625 44.003906 L 1439.980469 51.089844 L 1436.4375 771.082031 Z M -3.546875 763.996094 "/></clipPath><clipPath id="319afbb9fa"><path d="M 0 174 L 720 174 L 720 180 L 0 180 Z M 0 174 "/></clipPath><clipPath id="503850e60c"><path d="M -3.546875 763.996094 L -0.00390625 44.003906 L 1439.980469 51.089844 L 1436.4375 771.082031 Z M -3.546875 763.996094 "/></clipPath><clipPath id="4de528e036"><path d="M -3.546875 763.996094 L -0.00390625 44.003906 L 1439.980469 51.089844 L 1436.4375 771.082031 Z M -3.546875 763.996094 "/></clipPath><clipPath id="c379009fa7"><path d="M 0 240 L 719 240 L 719 245 L 0 245 Z M 0 240 "/></clipPath><clipPath id="d666a94602"><path d="M -3.546875 763.996094 L -0.00390625 44.003906 L 1439.980469 51.089844 L 1436.4375 771.082031 Z M -3.546875 763.996094 "/></clipPath><clipPath id="4b8750812f"><path d="M -3.546875 763.996094 L -0.00390625 44.003906 L 1439.980469 51.089844 L 1436.4375 771.082031 Z M -3.546875 763.996094 "/></clipPath><clipPath id="1b48e7e6d0"><path d="M 0 305 L 719 305 L 719 311 L 0 311 Z M 0 305 "/></clipPath><clipPath id="cae32a45de"><path d="M -3.546875 763.996094 L -0.00390625 44.003906 L 1439.980469 51.089844 L 1436.4375 771.082031 Z M -3.546875 763.996094 "/></clipPath><clipPath id="083b1be121"><path d="M -3.546875 763.996094 L -0.00390625 44.003906 L 1439.980469 51.089844 L 1436.4375 771.082031 Z M -3.546875 763.996094 "/></clipPath><clipPath id="e304dbc4ff"><path d="M 0 370 L 719 370 L 719 376 L 0 376 Z M 0 370 "/></clipPath><clipPath id="9b5f6ee622"><path d="M -3.546875 763.996094 L -0.00390625 44.003906 L 1439.980469 51.089844 L 1436.4375 771.082031 Z M -3.546875 763.996094 "/></clipPath><clipPath id="545950915d"><path d="M -3.546875 763.996094 L -0.00390625 44.003906 L 1439.980469 51.089844 L 1436.4375 771.082031 Z M -3.546875 763.996094 "/></clipPath><clipPath id="910158037e"><path d="M 0 436 L 718 436 L 718 441 L 0 441 Z M 0 436 "/></clipPath><clipPath id="144190cb24"><path d="M -3.546875 763.996094 L -0.00390625 44.003906 L 1439.980469 51.089844 L 1436.4375 771.082031 Z M -3.546875 763.996094 "/></clipPath><clipPath id="11a8881ff8"><path d="M -3.546875 763.996094 L -0.00390625 44.003906 L 1439.980469 51.089844 L 1436.4375 771.082031 Z M -3.546875 763.996094 "/></clipPath><clipPath id="8d00eafdbf"><path d="M 0 501 L 718 501 L 718 507 L 0 507 Z M 0 501 "/></clipPath><clipPath id="af7253b3c1"><path d="M -3.546875 763.996094 L -0.00390625 44.003906 L 1439.980469 51.089844 L 1436.4375 771.082031 Z M -3.546875 763.996094 "/></clipPath><clipPath id="5fe4829b56"><path d="M -3.546875 763.996094 L -0.00390625 44.003906 L 1439.980469 51.089844 L 1436.4375 771.082031 Z M -3.546875 763.996094 "/></clipPath><clipPath id="8f7764624a"><path d="M 0 566 L 718 566 L 718 572 L 0 572 Z M 0 566 "/></clipPath><clipPath id="792d89e3f0"><path d="M -3.546875 763.996094 L -0.00390625 44.003906 L 1439.980469 51.089844 L 1436.4375 771.082031 Z M -3.546875 763.996094 "/></clipPath><clipPath id="e1dd14bf49"><path d="M -3.546875 763.996094 L -0.00390625 44.003906 L 1439.980469 51.089844 L 1436.4375 771.082031 Z M -3.546875 763.996094 "/></clipPath><clipPath id="2c5b335195"><path d="M 0 632 L 718 632 L 718 637 L 0 637 Z M 0 632 "/></clipPath><clipPath id="89f69bb8de"><path d="M -3.546875 763.996094 L -0.00390625 44.003906 L 1439.980469 51.089844 L 1436.4375 771.082031 Z M -3.546875 763.996094 "/></clipPath><clipPath id="6e63c017f9"><path d="M -3.546875 763.996094 L -0.00390625 44.003906 L 1439.980469 51.089844 L 1436.4375 771.082031 Z M -3.546875 763.996094 "/></clipPath><clipPath id="56af9eb265"><path d="M 0 697 L 717 697 L 717 703 L 0 703 Z M 0 697 "/></clipPath><clipPath id="5215adcf3c"><path d="M -3.546875 763.996094 L -0.00390625 44.003906 L 1439.980469 51.089844 L 1436.4375 771.082031 Z M -3.546875 763.996094 "/></clipPath><clipPath id="6d1d414d6c"><path d="M -3.546875 763.996094 L -0.00390625 44.003906 L 1439.980469 51.089844 L 1436.4375 771.082031 Z M -3.546875 763.996094 "/></clipPath><clipPath id="c5ae5f4bc2"><path d="M 1300 151.316406 L 1322 151.316406 L 1322 180 L 1300 180 Z M 1300 151.316406 "/></clipPath><clipPath id="04bc6c642d"><path d="M 1342 212 L 1371 212 L 1371 233.066406 L 1342 233.066406 Z M 1342 212 "/></clipPath><clipPath id="1f72583e59"><path d="M 1282.089844 195 L 1321 195 L 1321 204 L 1282.089844 204 Z M 1282.089844 195 "/></clipPath><clipPath id="c5ef996411"><path d="M 1339 191 L 1377.128906 191 L 1377.128906 200 L 1339 200 Z M 1339 191 "/></clipPath><clipPath id="9576f5b90e"><path d="M 65.132812 587.105469 L 96.632812 587.105469 L 96.632812 618.605469 L 65.132812 618.605469 Z M 65.132812 587.105469 "/></clipPath><clipPath id="5a58fd5054"><path d="M 777.972656 151.316406 L 809.472656 151.316406 L 809.472656 182.816406 L 777.972656 182.816406 Z M 777.972656 151.316406 "/></clipPath></defs><g id="a2997303c4"><rect x="0" width="1440" y="0" height="809.999993" style="fill:#ffffff;fill-opacity:1;stroke:none;"/><rect x="0" width="1440" y="0" height="809.999993" style="fill:#414de2;fill-opacity:1;stroke:none;"/><g clip-rule="nonzero" clip-path="url(#314ee2e138)"><g clip-rule="nonzero" clip-path="url(#b9e8b5e893)"><g clip-rule="nonzero" clip-path="url(#1e57b56352)"><path style=" stroke:none;fill-rule:nonzero;fill:#606bf9;fill-opacity:1;" d="M 1439.308594 51.160156 L 1435.765625 771.042969 L 715.878906 767.503906 L 719.421875 47.617188 Z M 1434.773438 770.042969 L 1438.304688 52.152344 L 720.417969 48.621094 L 716.882812 766.507812 Z M 1434.773438 770.042969 "/></g></g></g><g clip-rule="nonzero" clip-path="url(#558d107dd5)"><g clip-rule="nonzero" clip-path="url(#17d4b7988c)"><g clip-rule="nonzero" clip-path="url(#72847d8ff9)"><path style=" stroke:none;fill-rule:nonzero;fill:#606bf9;fill-opacity:1;" d="M 1304.066406 769.898438 L 1307.605469 51.011719 L 1308.601562 51.015625 L 1305.066406 769.902344 Z M 1304.066406 769.898438 "/></g></g></g><g clip-rule="nonzero" clip-path="url(#f950bd19c7)"><g clip-rule="nonzero" clip-path="url(#f529f02cdc)"><g clip-rule="nonzero" clip-path="url(#0f135590f6)"><path style=" stroke:none;fill-rule:nonzero;fill:#606bf9;fill-opacity:1;" d="M 1238.707031 769.574219 L 1242.246094 50.6875 L 1243.242188 50.695312 L 1239.707031 769.582031 Z M 1238.707031 769.574219 "/></g></g></g><g clip-rule="nonzero" clip-path="url(#dfa990459e)"><g clip-rule="nonzero" clip-path="url(#18deae8658)"><g clip-rule="nonzero" clip-path="url(#e327ec41ce)"><path style=" stroke:none;fill-rule:nonzero;fill:#606bf9;fill-opacity:1;" d="M 1173.355469 769.253906 L 1176.894531 50.367188 L 1177.890625 50.371094 L 1174.355469 769.257812 Z M 1173.355469 769.253906 "/></g></g></g><g clip-rule="nonzero" clip-path="url(#eed50d723a)"><g clip-rule="nonzero" clip-path="url(#0168812235)"><g clip-rule="nonzero" clip-path="url(#a46dd3b38d)"><path style=" stroke:none;fill-rule:nonzero;fill:#606bf9;fill-opacity:1;" d="M 1108.003906 768.933594 L 1111.539062 50.046875 L 1112.539062 50.050781 L 1109 768.9375 Z M 1108.003906 768.933594 "/></g></g></g><g clip-rule="nonzero" clip-path="url(#ccdd6d2ead)"><g clip-rule="nonzero" clip-path="url(#5adc9369a7)"><g clip-rule="nonzero" clip-path="url(#164d6d40a5)"><path style=" stroke:none;fill-rule:nonzero;fill:#606bf9;fill-opacity:1;" d="M 1042.652344 768.609375 L 1046.1875 49.722656 L 1047.1875 49.730469 L 1043.648438 768.617188 Z M 1042.652344 768.609375 "/></g></g></g><g clip-rule="nonzero" clip-path="url(#778aa4a21e)"><g clip-rule="nonzero" clip-path="url(#73e6b89bba)"><g clip-rule="nonzero" clip-path="url(#07cfe25f94)"><path style=" stroke:none;fill-rule:nonzero;fill:#606bf9;fill-opacity:1;" d="M 977.296875 768.289062 L 980.835938 49.402344 L 981.835938 49.40625 L 978.296875 768.292969 Z M 977.296875 768.289062 "/></g></g></g><g clip-rule="nonzero" clip-path="url(#47be89e5d4)"><g clip-rule="nonzero" clip-path="url(#1dd561da47)"><g clip-rule="nonzero" clip-path="url(#6f0ff70c25)"><path style=" stroke:none;fill-rule:nonzero;fill:#606bf9;fill-opacity:1;" d="M 911.945312 767.96875 L 915.484375 49.082031 L 916.484375 49.085938 L 912.945312 767.972656 Z M 911.945312 767.96875 "/></g></g></g><g clip-rule="nonzero" clip-path="url(#f6dc3ab558)"><g clip-rule="nonzero" clip-path="url(#f252af5ba4)"><g clip-rule="nonzero" clip-path="url(#e6729e32f2)"><path style=" stroke:none;fill-rule:nonzero;fill:#606bf9;fill-opacity:1;" d="M 846.585938 767.644531 L 850.125 48.757812 L 851.125 48.765625 L 847.585938 767.652344 Z M 846.585938 767.644531 "/></g></g></g><g clip-rule="nonzero" clip-path="url(#f7a07152ea)"><g clip-rule="nonzero" clip-path="url(#7e5407f92f)"><g clip-rule="nonzero" clip-path="url(#4e3abfc458)"><path style=" stroke:none;fill-rule:nonzero;fill:#606bf9;fill-opacity:1;" d="M 781.234375 767.324219 L 784.773438 48.4375 L 785.773438 48.441406 L 782.234375 767.328125 Z M 781.234375 767.324219 "/></g></g></g><g clip-rule="nonzero" clip-path="url(#9a56cd98c0)"><g clip-rule="nonzero" clip-path="url(#b5b7dffbc0)"><g clip-rule="nonzero" clip-path="url(#973d9ac868)"><path style=" stroke:none;fill-rule:nonzero;fill:#606bf9;fill-opacity:1;" d="M 719.597656 113.96875 L 719.601562 112.972656 L 1438.488281 116.507812 L 1438.484375 117.507812 Z M 719.597656 113.96875 "/></g></g></g><g clip-rule="nonzero" clip-path="url(#16beaeccb2)"><g clip-rule="nonzero" clip-path="url(#7910a477aa)"><g clip-rule="nonzero" clip-path="url(#c0dbb6f882)"><path style=" stroke:none;fill-rule:nonzero;fill:#606bf9;fill-opacity:1;" d="M 719.273438 179.320312 L 719.28125 178.324219 L 1438.167969 181.859375 L 1438.160156 182.859375 Z M 719.273438 179.320312 "/></g></g></g><g clip-rule="nonzero" clip-path="url(#1ddaf42ad1)"><g clip-rule="nonzero" clip-path="url(#d5cba48a7a)"><g clip-rule="nonzero" clip-path="url(#92a6d73a84)"><path style=" stroke:none;fill-rule:nonzero;fill:#606bf9;fill-opacity:1;" d="M 718.953125 244.679688 L 718.957031 243.683594 L 1437.84375 247.21875 L 1437.839844 248.21875 Z M 718.953125 244.679688 "/></g></g></g><g clip-rule="nonzero" clip-path="url(#00008b1fa2)"><g clip-rule="nonzero" clip-path="url(#001c1737ef)"><g clip-rule="nonzero" clip-path="url(#280a9e6442)"><path style=" stroke:none;fill-rule:nonzero;fill:#606bf9;fill-opacity:1;" d="M 718.632812 310.03125 L 718.636719 309.035156 L 1437.523438 312.570312 L 1437.519531 313.570312 Z M 718.632812 310.03125 "/></g></g></g><g clip-rule="nonzero" clip-path="url(#f79f2ceb21)"><g clip-rule="nonzero" clip-path="url(#2c7d094e4a)"><g clip-rule="nonzero" clip-path="url(#ee3194d9b6)"><path style=" stroke:none;fill-rule:nonzero;fill:#606bf9;fill-opacity:1;" d="M 718.308594 375.386719 L 718.316406 374.386719 L 1437.203125 377.925781 L 1437.195312 378.921875 Z M 718.308594 375.386719 "/></g></g></g><g clip-rule="nonzero" clip-path="url(#bc269acacf)"><g clip-rule="nonzero" clip-path="url(#9cbfbf7ebb)"><g clip-rule="nonzero" clip-path="url(#d8a5a3ad7c)"><path style=" stroke:none;fill-rule:nonzero;fill:#606bf9;fill-opacity:1;" d="M 717.988281 440.738281 L 717.992188 439.738281 L 1436.878906 443.277344 L 1436.875 444.273438 Z M 717.988281 440.738281 "/></g></g></g><g clip-rule="nonzero" clip-path="url(#45e6f6392c)"><g clip-rule="nonzero" clip-path="url(#944fc3078d)"><g clip-rule="nonzero" clip-path="url(#d47a0f73ad)"><path style=" stroke:none;fill-rule:nonzero;fill:#606bf9;fill-opacity:1;" d="M 717.667969 506.089844 L 717.671875 505.089844 L 1436.558594 508.628906 L 1436.554688 509.628906 Z M 717.667969 506.089844 "/></g></g></g><g clip-rule="nonzero" clip-path="url(#1bfc40f5cb)"><g clip-rule="nonzero" clip-path="url(#6051abcc49)"><g clip-rule="nonzero" clip-path="url(#3a7f18026a)"><path style=" stroke:none;fill-rule:nonzero;fill:#606bf9;fill-opacity:1;" d="M 717.34375 571.441406 L 717.351562 570.441406 L 1436.238281 573.980469 L 1436.230469 574.980469 Z M 717.34375 571.441406 "/></g></g></g><g clip-rule="nonzero" clip-path="url(#71e778c2a3)"><g clip-rule="nonzero" clip-path="url(#26fbbecc16)"><g clip-rule="nonzero" clip-path="url(#d03a3d91c4)"><path style=" stroke:none;fill-rule:nonzero;fill:#606bf9;fill-opacity:1;" d="M 717.023438 636.800781 L 717.027344 635.800781 L 1435.914062 639.339844 L 1435.910156 640.339844 Z M 717.023438 636.800781 "/></g></g></g><g clip-rule="nonzero" clip-path="url(#46008f8b7e)"><g clip-rule="nonzero" clip-path="url(#7f638998f8)"><g clip-rule="nonzero" clip-path="url(#1b1e980b5b)"><path style=" stroke:none;fill-rule:nonzero;fill:#606bf9;fill-opacity:1;" d="M 716.703125 702.152344 L 716.707031 701.152344 L 1435.59375 704.691406 L 1435.589844 705.691406 Z M 716.703125 702.152344 "/></g></g></g><g clip-rule="nonzero" clip-path="url(#e3373b77b3)"><g clip-rule="nonzero" clip-path="url(#77e3bb4051)"><g clip-rule="nonzero" clip-path="url(#c3b90bdd56)"><path style=" stroke:none;fill-rule:nonzero;fill:#606bf9;fill-opacity:1;" d="M 719.921875 47.617188 L 719.917969 48.617188 L 1.53125 45.082031 L -2.003906 762.972656 L 716.386719 766.507812 L 716.378906 767.503906 L -3.007812 763.964844 L 0.535156 44.078125 Z M 719.921875 47.617188 "/></g></g></g><g clip-rule="nonzero" clip-path="url(#e057db803c)"><g clip-rule="nonzero" clip-path="url(#6ef84a3c4b)"><g clip-rule="nonzero" clip-path="url(#f712be8890)"><path style=" stroke:none;fill-rule:nonzero;fill:#606bf9;fill-opacity:1;" d="M 650.53125 766.679688 L 654.070312 47.792969 L 655.066406 47.800781 L 651.53125 766.6875 Z M 650.53125 766.679688 "/></g></g></g><g clip-rule="nonzero" clip-path="url(#f7c00a146a)"><g clip-rule="nonzero" clip-path="url(#4da2694211)"><g clip-rule="nonzero" clip-path="url(#6af2627a8e)"><path style=" stroke:none;fill-rule:nonzero;fill:#606bf9;fill-opacity:1;" d="M 585.179688 766.359375 L 588.714844 47.472656 L 589.714844 47.476562 L 586.175781 766.363281 Z M 585.179688 766.359375 "/></g></g></g><g clip-rule="nonzero" clip-path="url(#8519b9eb41)"><g clip-rule="nonzero" clip-path="url(#d435b42c43)"><g clip-rule="nonzero" clip-path="url(#3e744b971d)"><path style=" stroke:none;fill-rule:nonzero;fill:#606bf9;fill-opacity:1;" d="M 519.820312 766.039062 L 523.359375 47.152344 L 524.355469 47.15625 L 520.820312 766.042969 Z M 519.820312 766.039062 "/></g></g></g><g clip-rule="nonzero" clip-path="url(#79af41f92a)"><g clip-rule="nonzero" clip-path="url(#e1d56580e4)"><g clip-rule="nonzero" clip-path="url(#89e5c11a14)"><path style=" stroke:none;fill-rule:nonzero;fill:#606bf9;fill-opacity:1;" d="M 454.46875 765.714844 L 458.003906 46.828125 L 459.003906 46.835938 L 455.464844 765.722656 Z M 454.46875 765.714844 "/></g></g></g><g clip-rule="nonzero" clip-path="url(#44a5eb0b24)"><g clip-rule="nonzero" clip-path="url(#f166be14db)"><g clip-rule="nonzero" clip-path="url(#99c0d2c136)"><path style=" stroke:none;fill-rule:nonzero;fill:#606bf9;fill-opacity:1;" d="M 389.117188 765.394531 L 392.652344 46.507812 L 393.652344 46.511719 L 390.113281 765.398438 Z M 389.117188 765.394531 "/></g></g></g><g clip-rule="nonzero" clip-path="url(#5b6590b173)"><g clip-rule="nonzero" clip-path="url(#411196a57f)"><g clip-rule="nonzero" clip-path="url(#92f9d6d831)"><path style=" stroke:none;fill-rule:nonzero;fill:#606bf9;fill-opacity:1;" d="M 323.761719 765.074219 L 327.300781 46.1875 L 328.300781 46.191406 L 324.761719 765.078125 Z M 323.761719 765.074219 "/></g></g></g><g clip-rule="nonzero" clip-path="url(#b4845d73f6)"><g clip-rule="nonzero" clip-path="url(#ce3681aad9)"><g clip-rule="nonzero" clip-path="url(#007277dde9)"><path style=" stroke:none;fill-rule:nonzero;fill:#606bf9;fill-opacity:1;" d="M 258.410156 764.75 L 261.949219 45.863281 L 262.949219 45.871094 L 259.410156 764.757812 Z M 258.410156 764.75 "/></g></g></g><g clip-rule="nonzero" clip-path="url(#24114054ac)"><g clip-rule="nonzero" clip-path="url(#458c75b100)"><g clip-rule="nonzero" clip-path="url(#c5122b48c8)"><path style=" stroke:none;fill-rule:nonzero;fill:#606bf9;fill-opacity:1;" d="M 193.058594 764.429688 L 196.597656 45.542969 L 197.59375 45.546875 L 194.058594 764.433594 Z M 193.058594 764.429688 "/></g></g></g><g clip-rule="nonzero" clip-path="url(#cbb7f90929)"><g clip-rule="nonzero" clip-path="url(#1fb7382d58)"><g clip-rule="nonzero" clip-path="url(#719aaaab45)"><path style=" stroke:none;fill-rule:nonzero;fill:#606bf9;fill-opacity:1;" d="M 127.699219 764.109375 L 131.238281 45.222656 L 132.238281 45.226562 L 128.699219 764.113281 Z M 127.699219 764.109375 "/></g></g></g><g clip-rule="nonzero" clip-path="url(#9f715356e7)"><g clip-rule="nonzero" clip-path="url(#f38fd46150)"><g clip-rule="nonzero" clip-path="url(#59bc5ebb85)"><path style=" stroke:none;fill-rule:nonzero;fill:#606bf9;fill-opacity:1;" d="M 0.707031 110.433594 L 0.714844 109.433594 L 719.601562 112.972656 L 719.597656 113.96875 Z M 0.707031 110.433594 "/></g></g></g><g clip-rule="nonzero" clip-path="url(#319afbb9fa)"><g clip-rule="nonzero" clip-path="url(#503850e60c)"><g clip-rule="nonzero" clip-path="url(#4de528e036)"><path style=" stroke:none;fill-rule:nonzero;fill:#606bf9;fill-opacity:1;" d="M 0.386719 175.785156 L 0.390625 174.785156 L 719.28125 178.324219 L 719.273438 179.320312 Z M 0.386719 175.785156 "/></g></g></g><g clip-rule="nonzero" clip-path="url(#c379009fa7)"><g clip-rule="nonzero" clip-path="url(#d666a94602)"><g clip-rule="nonzero" clip-path="url(#4b8750812f)"><path style=" stroke:none;fill-rule:nonzero;fill:#606bf9;fill-opacity:1;" d="M 0.0664062 241.144531 L 0.0703125 240.144531 L 718.957031 243.683594 L 718.953125 244.679688 Z M 0.0664062 241.144531 "/></g></g></g><g clip-rule="nonzero" clip-path="url(#1b48e7e6d0)"><g clip-rule="nonzero" clip-path="url(#cae32a45de)"><g clip-rule="nonzero" clip-path="url(#083b1be121)"><path style=" stroke:none;fill-rule:nonzero;fill:#606bf9;fill-opacity:1;" d="M -0.257812 306.496094 L -0.25 305.496094 L 718.636719 309.035156 L 718.632812 310.03125 Z M -0.257812 306.496094 "/></g></g></g><g clip-rule="nonzero" clip-path="url(#e304dbc4ff)"><g clip-rule="nonzero" clip-path="url(#9b5f6ee622)"><g clip-rule="nonzero" clip-path="url(#545950915d)"><path style=" stroke:none;fill-rule:nonzero;fill:#606bf9;fill-opacity:1;" d="M -0.578125 371.847656 L -0.574219 370.847656 L 718.316406 374.386719 L 718.308594 375.386719 Z M -0.578125 371.847656 "/></g></g></g><g clip-rule="nonzero" clip-path="url(#910158037e)"><g clip-rule="nonzero" clip-path="url(#144190cb24)"><g clip-rule="nonzero" clip-path="url(#11a8881ff8)"><path style=" stroke:none;fill-rule:nonzero;fill:#606bf9;fill-opacity:1;" d="M -0.898438 437.199219 L -0.894531 436.199219 L 717.992188 439.738281 L 717.988281 440.738281 Z M -0.898438 437.199219 "/></g></g></g><g clip-rule="nonzero" clip-path="url(#8d00eafdbf)"><g clip-rule="nonzero" clip-path="url(#af7253b3c1)"><g clip-rule="nonzero" clip-path="url(#5fe4829b56)"><path style=" stroke:none;fill-rule:nonzero;fill:#606bf9;fill-opacity:1;" d="M -1.222656 502.550781 L -1.214844 501.554688 L 717.671875 505.089844 L 717.667969 506.089844 Z M -1.222656 502.550781 "/></g></g></g><g clip-rule="nonzero" clip-path="url(#8f7764624a)"><g clip-rule="nonzero" clip-path="url(#792d89e3f0)"><g clip-rule="nonzero" clip-path="url(#e1dd14bf49)"><path style=" stroke:none;fill-rule:nonzero;fill:#606bf9;fill-opacity:1;" d="M -1.542969 567.902344 L -1.539062 566.90625 L 717.351562 570.441406 L 717.34375 571.441406 Z M -1.542969 567.902344 "/></g></g></g><g clip-rule="nonzero" clip-path="url(#2c5b335195)"><g clip-rule="nonzero" clip-path="url(#89f69bb8de)"><g clip-rule="nonzero" clip-path="url(#6e63c017f9)"><path style=" stroke:none;fill-rule:nonzero;fill:#606bf9;fill-opacity:1;" d="M -1.863281 633.261719 L -1.859375 632.265625 L 717.027344 635.800781 L 717.023438 636.800781 Z M -1.863281 633.261719 "/></g></g></g><g clip-rule="nonzero" clip-path="url(#56af9eb265)"><g clip-rule="nonzero" clip-path="url(#5215adcf3c)"><g clip-rule="nonzero" clip-path="url(#6d1d414d6c)"><path style=" stroke:none;fill-rule:nonzero;fill:#606bf9;fill-opacity:1;" d="M -2.1875 698.613281 L -2.179688 697.617188 L 716.707031 701.152344 L 716.703125 702.152344 Z M -2.1875 698.613281 "/></g></g></g><g clip-rule="nonzero" clip-path="url(#c5ae5f4bc2)"><path style=" stroke:none;fill-rule:nonzero;fill:#181e5f;fill-opacity:1;" d="M 1300.289062 155.339844 C 1300.289062 153.113281 1302.089844 151.308594 1304.316406 151.308594 C 1306.542969 151.308594 1308.347656 153.113281 1308.347656 155.339844 C 1308.347656 157.175781 1307.117188 158.722656 1305.4375 159.207031 L 1305.4375 177.226562 L 1321.195312 177.226562 L 1321.195312 179.375 L 1303.464844 179.375 L 1303.464844 159.273438 C 1301.648438 158.882812 1300.289062 157.269531 1300.289062 155.339844 Z M 1300.289062 155.339844 "/></g><path style=" stroke:none;fill-rule:nonzero;fill:#181e5f;fill-opacity:1;" d="M 1371.882812 157.21875 C 1371.882812 154.996094 1370.082031 153.191406 1367.855469 153.191406 C 1365.628906 153.191406 1363.828125 154.996094 1363.828125 157.21875 C 1363.828125 159.054688 1365.054688 160.601562 1366.734375 161.085938 L 1366.734375 179.109375 L 1350.976562 179.109375 L 1350.976562 181.257812 L 1368.707031 181.257812 L 1368.707031 161.15625 C 1370.523438 160.765625 1371.882812 159.152344 1371.882812 157.21875 Z M 1371.882812 157.21875 "/><path style=" stroke:none;fill-rule:nonzero;fill:#858ef0;fill-opacity:1;" d="M 1287.046875 163.308594 C 1287.046875 161.085938 1288.851562 159.28125 1291.074219 159.28125 C 1293.300781 159.28125 1295.105469 161.085938 1295.105469 163.308594 C 1295.105469 165.113281 1293.917969 166.640625 1292.285156 167.152344 L 1292.285156 188.027344 L 1315.742188 188.027344 L 1315.742188 189.898438 L 1290.472656 189.898438 L 1290.472656 167.289062 C 1288.535156 166.996094 1287.046875 165.328125 1287.046875 163.308594 Z M 1287.046875 163.308594 "/><g clip-rule="nonzero" clip-path="url(#04bc6c642d)"><path style=" stroke:none;fill-rule:nonzero;fill:#181e5f;fill-opacity:1;" d="M 1362.996094 229.898438 L 1342.894531 229.898438 L 1342.894531 212.171875 L 1345.042969 212.171875 L 1345.042969 227.925781 L 1363.066406 227.925781 C 1363.550781 226.246094 1365.097656 225.019531 1366.933594 225.019531 C 1369.160156 225.019531 1370.960938 226.820312 1370.960938 229.046875 C 1370.960938 231.273438 1369.160156 233.074219 1366.933594 233.074219 C 1365 233.074219 1363.386719 231.714844 1362.996094 229.898438 Z M 1362.996094 229.898438 "/></g><path style=" stroke:none;fill-rule:nonzero;fill:#181e5f;fill-opacity:1;" d="M 1306.832031 224.957031 L 1306.832031 202.347656 L 1332.101562 202.347656 L 1332.101562 204.21875 L 1308.640625 204.21875 L 1308.640625 225.089844 C 1310.277344 225.605469 1311.464844 227.132812 1311.464844 228.9375 C 1311.464844 231.160156 1309.660156 232.964844 1307.433594 232.964844 C 1305.210938 232.964844 1303.40625 231.160156 1303.40625 228.9375 C 1303.40625 226.917969 1304.894531 225.25 1306.832031 224.957031 Z M 1306.832031 224.957031 "/><g clip-rule="nonzero" clip-path="url(#1f72583e59)"><path style=" stroke:none;fill-rule:nonzero;fill:#181e5f;fill-opacity:1;" d="M 1286.441406 195.191406 C 1288.355469 195.191406 1289.957031 196.527344 1290.367188 198.320312 L 1320.375 198.320312 L 1320.375 200.125 L 1290.367188 200.125 C 1289.957031 201.914062 1288.359375 203.25 1286.441406 203.25 C 1284.21875 203.25 1282.414062 201.445312 1282.414062 199.222656 C 1282.414062 196.996094 1284.21875 195.191406 1286.441406 195.191406 Z M 1286.441406 195.191406 "/></g><g clip-rule="nonzero" clip-path="url(#c5ef996411)"><path style=" stroke:none;fill-rule:nonzero;fill:#858ef0;fill-opacity:1;" d="M 1373.1875 199.222656 C 1371.273438 199.222656 1369.675781 197.886719 1369.261719 196.09375 L 1339.257812 196.09375 L 1339.257812 194.289062 L 1369.261719 194.289062 C 1369.671875 192.5 1371.273438 191.164062 1373.1875 191.164062 C 1375.410156 191.164062 1377.214844 192.96875 1377.214844 195.191406 C 1377.214844 197.417969 1375.410156 199.222656 1373.1875 199.222656 Z M 1373.1875 199.222656 "/></g><path style=" stroke:none;fill-rule:nonzero;fill:#181e5f;fill-opacity:1;" d="M 1333.980469 156.078125 C 1333.980469 157.992188 1332.644531 159.589844 1330.855469 160 L 1330.855469 190.007812 L 1329.050781 190.007812 L 1329.050781 160 C 1327.261719 159.589844 1325.921875 157.992188 1325.921875 156.078125 C 1325.921875 153.851562 1327.726562 152.046875 1329.953125 152.046875 C 1332.175781 152.046875 1333.980469 153.851562 1333.980469 156.078125 Z M 1333.980469 156.078125 "/><path style=" stroke:none;fill-rule:nonzero;fill:#181e5f;fill-opacity:1;" d="M 1312.773438 215.410156 C 1312.773438 216.652344 1313.777344 217.65625 1315.015625 217.65625 L 1357.15625 217.65625 C 1358.394531 217.65625 1359.398438 216.652344 1359.398438 215.410156 L 1359.398438 173.273438 C 1359.398438 172.03125 1358.394531 171.027344 1357.15625 171.027344 L 1315.015625 171.027344 C 1313.777344 171.027344 1312.773438 172.03125 1312.773438 173.273438 Z M 1312.773438 215.410156 "/><path style=" stroke:none;fill-rule:nonzero;fill:#becbff;fill-opacity:1;" d="M 1321.195312 207.800781 C 1321.195312 208.59375 1321.835938 209.234375 1322.628906 209.234375 L 1349.546875 209.234375 C 1350.335938 209.234375 1350.980469 208.59375 1350.980469 207.800781 L 1350.980469 180.882812 C 1350.980469 180.089844 1350.335938 179.449219 1349.546875 179.449219 L 1322.628906 179.449219 C 1321.835938 179.449219 1321.195312 180.089844 1321.195312 180.882812 Z M 1321.195312 207.800781 "/><path style=" stroke:none;fill-rule:nonzero;fill:#181e5f;fill-opacity:1;" d="M 1323.671875 205.558594 C 1323.671875 206.21875 1324.207031 206.753906 1324.867188 206.753906 L 1347.304688 206.753906 C 1347.964844 206.753906 1348.5 206.21875 1348.5 205.558594 L 1348.5 183.125 C 1348.5 182.464844 1347.964844 181.929688 1347.304688 181.929688 L 1324.867188 181.929688 C 1324.207031 181.929688 1323.671875 182.464844 1323.671875 183.125 Z M 1323.671875 205.558594 "/><g clip-rule="nonzero" clip-path="url(#9576f5b90e)"><path style=" stroke:none;fill-rule:nonzero;fill:#ffffff;fill-opacity:1;" d="M 95.484375 605.320312 C 96.105469 605.320312 96.609375 604.8125 96.609375 604.195312 L 96.609375 601.476562 C 96.609375 600.859375 96.105469 600.355469 95.484375 600.355469 L 94.320312 600.355469 C 93.699219 600.355469 93.046875 599.871094 92.863281 599.28125 L 91.871094 596.863281 C 91.578125 596.320312 91.695312 595.515625 92.132812 595.078125 L 92.957031 594.253906 C 93.394531 593.816406 93.394531 593.101562 92.957031 592.664062 L 91.039062 590.742188 C 90.601562 590.304688 89.886719 590.304688 89.449219 590.742188 L 88.621094 591.570312 C 88.183594 592.003906 87.382812 592.125 86.835938 591.832031 L 84.421875 590.835938 C 83.828125 590.65625 83.347656 590 83.347656 589.382812 L 83.347656 588.214844 C 83.347656 587.597656 82.839844 587.089844 82.222656 587.089844 L 79.507812 587.089844 C 78.886719 587.089844 78.382812 587.597656 78.382812 588.214844 L 78.382812 589.382812 C 78.382812 590 77.898438 590.65625 77.308594 590.835938 L 74.890625 591.832031 C 74.347656 592.125 73.542969 592.003906 73.105469 591.566406 L 72.28125 590.742188 C 71.84375 590.304688 71.128906 590.304688 70.691406 590.742188 L 68.769531 592.664062 C 68.332031 593.101562 68.332031 593.816406 68.769531 594.253906 L 69.597656 595.078125 C 70.035156 595.515625 70.152344 596.320312 69.859375 596.863281 L 68.863281 599.28125 C 68.683594 599.871094 68.027344 600.355469 67.410156 600.355469 L 66.242188 600.355469 C 65.625 600.355469 65.121094 600.859375 65.121094 601.476562 L 65.121094 604.195312 C 65.121094 604.8125 65.625 605.320312 66.242188 605.320312 L 67.410156 605.320312 C 68.027344 605.320312 68.683594 605.800781 68.863281 606.394531 L 69.859375 608.808594 C 70.152344 609.355469 70.035156 610.15625 69.597656 610.59375 L 68.769531 611.421875 C 68.335938 611.859375 68.335938 612.574219 68.769531 613.007812 L 70.691406 614.929688 C 71.128906 615.367188 71.84375 615.367188 72.28125 614.929688 L 73.105469 614.105469 C 73.542969 613.667969 74.347656 613.550781 74.890625 613.84375 L 77.308594 614.835938 C 77.898438 615.019531 78.382812 615.671875 78.382812 616.292969 L 78.382812 617.457031 C 78.382812 618.078125 78.886719 618.582031 79.507812 618.582031 L 82.222656 618.582031 C 82.839844 618.582031 83.347656 618.078125 83.347656 617.457031 L 83.347656 616.292969 C 83.347656 615.671875 83.832031 615.019531 84.421875 614.835938 L 86.835938 613.84375 C 87.382812 613.550781 88.183594 613.667969 88.621094 614.105469 L 89.449219 614.929688 C 89.886719 615.367188 90.601562 615.367188 91.039062 614.929688 L 92.957031 613.007812 C 93.394531 612.574219 93.394531 611.859375 92.957031 611.421875 L 92.132812 610.59375 C 91.695312 610.15625 91.578125 609.355469 91.871094 608.808594 L 92.863281 606.394531 C 93.046875 605.800781 93.699219 605.320312 94.320312 605.320312 Z M 80.863281 609.3125 C 77.285156 609.3125 74.386719 606.414062 74.386719 602.835938 C 74.386719 599.257812 77.285156 596.359375 80.863281 596.359375 C 84.441406 596.359375 87.34375 599.257812 87.34375 602.835938 C 87.34375 606.414062 84.441406 609.3125 80.863281 609.3125 Z M 80.863281 609.3125 "/></g><g clip-rule="nonzero" clip-path="url(#5a58fd5054)"><path style=" stroke:none;fill-rule:nonzero;fill:#ffffff;fill-opacity:1;" d="M 808.324219 169.53125 C 808.945312 169.53125 809.449219 169.023438 809.449219 168.40625 L 809.449219 165.691406 C 809.449219 165.070312 808.945312 164.566406 808.324219 164.566406 L 807.160156 164.566406 C 806.539062 164.566406 805.886719 164.082031 805.703125 163.492188 L 804.710938 161.074219 C 804.417969 160.53125 804.535156 159.726562 804.972656 159.289062 L 805.796875 158.464844 C 806.234375 158.027344 806.234375 157.3125 805.796875 156.875 L 803.875 154.953125 C 803.441406 154.515625 802.726562 154.515625 802.289062 154.953125 L 801.460938 155.78125 C 801.023438 156.21875 800.222656 156.335938 799.675781 156.042969 L 797.261719 155.046875 C 796.667969 154.867188 796.1875 154.210938 796.1875 153.59375 L 796.1875 152.425781 C 796.1875 151.808594 795.679688 151.304688 795.0625 151.304688 L 792.34375 151.304688 C 791.726562 151.304688 791.222656 151.808594 791.222656 152.425781 L 791.222656 153.59375 C 791.222656 154.210938 790.738281 154.867188 790.148438 155.046875 L 787.730469 156.042969 C 787.1875 156.335938 786.382812 156.21875 785.945312 155.78125 L 785.121094 154.953125 C 784.683594 154.515625 783.96875 154.515625 783.53125 154.953125 L 781.609375 156.875 C 781.171875 157.3125 781.171875 158.027344 781.609375 158.464844 L 782.4375 159.289062 C 782.875 159.726562 782.992188 160.53125 782.699219 161.074219 L 781.703125 163.492188 C 781.523438 164.082031 780.867188 164.566406 780.25 164.566406 L 779.082031 164.566406 C 778.464844 164.566406 777.960938 165.070312 777.960938 165.6875 L 777.960938 168.40625 C 777.960938 169.023438 778.464844 169.53125 779.082031 169.53125 L 780.25 169.53125 C 780.867188 169.53125 781.523438 170.011719 781.703125 170.605469 L 782.699219 173.023438 C 782.992188 173.566406 782.875 174.371094 782.4375 174.804688 L 781.609375 175.632812 C 781.171875 176.070312 781.171875 176.785156 781.609375 177.222656 L 783.53125 179.140625 C 783.96875 179.578125 784.683594 179.578125 785.121094 179.140625 L 785.945312 178.316406 C 786.382812 177.878906 787.1875 177.761719 787.730469 178.054688 L 790.148438 179.050781 C 790.738281 179.230469 791.222656 179.882812 791.222656 180.503906 L 791.222656 181.667969 C 791.222656 182.289062 791.726562 182.792969 792.347656 182.792969 L 795.0625 182.792969 C 795.679688 182.792969 796.1875 182.289062 796.1875 181.667969 L 796.1875 180.503906 C 796.1875 179.882812 796.667969 179.230469 797.261719 179.046875 L 799.675781 178.054688 C 800.222656 177.761719 801.023438 177.878906 801.460938 178.316406 L 802.289062 179.140625 C 802.726562 179.578125 803.441406 179.578125 803.878906 179.140625 L 805.796875 177.222656 C 806.234375 176.785156 806.234375 176.070312 805.796875 175.632812 L 804.972656 174.804688 C 804.535156 174.367188 804.417969 173.566406 804.710938 173.019531 L 805.703125 170.605469 C 805.886719 170.011719 806.539062 169.53125 807.160156 169.53125 Z M 793.703125 173.527344 C 790.125 173.527344 787.226562 170.625 787.226562 167.046875 C 787.226562 163.46875 790.125 160.570312 793.703125 160.570312 C 797.28125 160.570312 800.183594 163.46875 800.183594 167.046875 C 800.183594 170.625 797.28125 173.527344 793.703125 173.527344 Z M 793.703125 173.527344 "/></g></g></svg>