<svg xmlns="http://www.w3.org/2000/svg" xmlns:xlink="http://www.w3.org/1999/xlink" width="1920" zoomAndPan="magnify" viewBox="0 0 1440 809.999993" height="1080" preserveAspectRatio="xMidYMid meet" version="1.2"><g id="ede887d6fd"><path style=" stroke:none;fill-rule:nonzero;fill:#000000;fill-opacity:1;" d="M 445.558594 507.546875 C 442.265625 526.816406 455.21875 545.105469 474.488281 548.402344 C 493.757812 551.695312 512.046875 538.742188 515.34375 519.472656 C 518.636719 500.203125 505.683594 481.910156 486.414062 478.617188 C 467.144531 475.324219 448.851562 488.277344 445.558594 507.546875 Z M 445.558594 507.546875 "/><path style=" stroke:none;fill-rule:nonzero;fill:#ffbd59;fill-opacity:1;" d="M 478.59375 474.074219 C 477.035156 494.222656 478.308594 512.433594 484.996094 526.9375 C 488.894531 535.417969 494.652344 542.632812 502.773438 548.234375 C 532.628906 536.546875 559.414062 516.398438 585.636719 494.671875 C 597.429688 481.871094 602.71875 462.863281 601.144531 446.058594 C 599.105469 424.195312 585.492188 406.035156 559.5625 410.054688 C 533.523438 422.953125 506.582031 443.800781 478.59375 474.074219 Z M 478.59375 474.074219 "/><path style=" stroke:none;fill-rule:nonzero;fill:#ffbd59;fill-opacity:1;" d="M 484.996094 526.9375 C 488.898438 535.414062 494.652344 542.632812 502.773438 548.234375 C 532.628906 536.546875 559.414062 516.394531 585.636719 494.667969 C 597.429688 481.871094 602.71875 462.863281 601.144531 446.058594 C 575.421875 475.953125 536.996094 502.984375 484.996094 526.9375 Z M 484.996094 526.9375 "/><path style=" stroke:none;fill-rule:nonzero;fill:#000000;fill-opacity:1;" d="M 670.660156 99.71875 C 672.683594 125.046875 668.636719 144.023438 661.671875 159.945312 C 661.671875 159.945312 692.234375 156.351562 692.234375 156.351562 C 679.875 141.425781 676.667969 122.226562 680.550781 99.71875 C 680.550781 99.71875 670.660156 99.71875 670.660156 99.71875 Z M 670.660156 99.71875 "/><path style=" stroke:none;fill-rule:nonzero;fill:#ffde59;fill-opacity:1;" d="M 710.378906 172.628906 C 710.378906 172.628906 693.839844 174.007812 693.839844 174.007812 C 693.839844 174.007812 640.863281 178.445312 640.863281 178.445312 C 643.675781 166.511719 652.425781 157.332031 676.359375 155.15625 C 680.132812 154.925781 683.699219 154.785156 687 154.804688 C 702.050781 154.875 711.628906 158.273438 710.378906 172.628906 Z M 710.378906 172.628906 "/><path style=" stroke:none;fill-rule:nonzero;fill:#ffbd59;fill-opacity:1;" d="M 710.378906 172.628906 C 710.378906 172.628906 693.839844 174.007812 693.839844 174.007812 C 696.726562 168.121094 693.742188 161.644531 687 154.804688 C 702.050781 154.875 711.628906 158.273438 710.378906 172.628906 Z M 710.378906 172.628906 "/><path style=" stroke:none;fill-rule:nonzero;fill:#ff6d4d;fill-opacity:1;" d="M 695.914062 86.289062 C 695.914062 97.464844 686.851562 106.527344 675.675781 106.527344 C 664.496094 106.527344 655.433594 97.464844 655.433594 86.289062 C 655.433594 75.113281 664.496094 66.050781 675.675781 66.050781 C 686.851562 66.050781 695.914062 75.113281 695.914062 86.289062 Z M 695.914062 86.289062 "/><path style=" stroke:none;fill-rule:nonzero;fill:#ffde59;fill-opacity:1;" d="M 813.074219 322.800781 C 812.222656 327.050781 809.5625 330.738281 805.824219 332.929688 C 781.960938 346.890625 758.179688 357.082031 734.449219 363.789062 C 675.441406 380.496094 616.84375 375.648438 558.574219 353.589844 C 553.25 351.574219 549.570312 346.636719 549.253906 340.949219 C 544.792969 261.554688 578.898438 186.210938 669.65625 170.535156 C 678.019531 169.089844 686.523438 168.570312 694.972656 169.152344 C 694.972656 169.152344 694.988281 169.152344 694.988281 169.152344 C 697.277344 169.3125 699.566406 169.558594 701.84375 169.875 C 774.207031 180.128906 827.398438 251.132812 813.074219 322.800781 Z M 813.074219 322.800781 "/><path style=" stroke:none;fill-rule:nonzero;fill:#ffbd59;fill-opacity:1;" d="M 813.074219 322.800781 C 812.222656 327.050781 809.5625 330.738281 805.824219 332.929688 C 781.960938 346.890625 758.179688 357.082031 734.449219 363.789062 C 763.027344 301.648438 762.597656 237.613281 694.972656 169.152344 C 694.972656 169.152344 694.988281 169.152344 694.988281 169.152344 C 697.277344 169.3125 699.566406 169.558594 701.84375 169.875 C 774.207031 180.128906 827.398438 251.132812 813.074219 322.800781 Z M 813.074219 322.800781 "/><path style=" stroke:none;fill-rule:nonzero;fill:#000000;fill-opacity:1;" d="M 678.289062 218.644531 C 628.414062 231.816406 605.597656 264.605469 598.039062 289.070312 C 589.59375 328.84375 615.121094 337.074219 676.332031 317.910156 C 691.851562 313.050781 708.296875 312.066406 724.355469 314.625 C 782.015625 323.816406 797.882812 295.835938 767.933594 250.640625 C 753.523438 230.417969 735.765625 219.675781 714.65625 216.417969 C 702.53125 214.546875 690.148438 215.511719 678.289062 218.644531 Z M 678.289062 218.644531 "/><path style=" stroke:none;fill-rule:nonzero;fill:#000000;fill-opacity:1;" d="M 885.355469 452.214844 C 896.902344 459.421875 905.195312 468.160156 910.09375 478.496094 C 910.09375 478.496094 860.140625 530.960938 860.140625 530.960938 C 849.304688 523.75 845.425781 513.648438 850.230469 499.945312 C 850.230469 499.945312 885.355469 452.214844 885.355469 452.214844 Z M 885.355469 452.214844 "/><path style=" stroke:none;fill-rule:nonzero;fill:#ffde59;fill-opacity:1;" d="M 892.230469 447.820312 C 892.851562 448.601562 892.890625 449.703125 892.332031 450.53125 C 892.332031 450.53125 885.277344 460.921875 885.277344 460.921875 C 885.277344 460.921875 849.0625 514.257812 849.0625 514.257812 C 848.257812 515.445312 846.617188 515.714844 845.472656 514.847656 C 794.785156 476.269531 761.347656 433.71875 787.582031 399.683594 C 789.511719 397.179688 791.761719 394.722656 794.351562 392.3125 C 828.039062 378.804688 860.320312 407.652344 892.230469 447.820312 Z M 892.230469 447.820312 "/><path style=" stroke:none;fill-rule:nonzero;fill:#ffbd59;fill-opacity:1;" d="M 892.277344 450.609375 C 892.277344 450.609375 885.28125 460.921875 885.28125 460.921875 C 857.402344 423.304688 825.464844 400.535156 787.582031 399.683594 C 789.511719 397.179688 791.761719 394.722656 794.355469 392.3125 C 828.019531 378.8125 860.28125 407.617188 892.171875 447.746094 C 892.828125 448.574219 892.871094 449.734375 892.277344 450.609375 Z M 892.277344 450.609375 "/><path style=" stroke:none;fill-rule:nonzero;fill:#ffde59;fill-opacity:1;" d="M 979.699219 565.960938 C 980.777344 569.632812 979.558594 573.585938 976.589844 576.003906 C 971.160156 580.429688 965.375 584.492188 959.253906 588.195312 C 944.621094 597.066406 928.050781 603.90625 909.742188 608.917969 C 908.335938 609.304688 906.828125 609.144531 905.535156 608.46875 C 878.789062 594.457031 857.3125 573.421875 851.253906 531.8125 C 851.042969 530.363281 851.78125 528.90625 853.117188 528.296875 C 860.367188 524.996094 880.199219 505.683594 894.109375 489.847656 C 901.296875 481.667969 906.898438 474.417969 908.382812 470.777344 C 908.761719 469.851562 909.902344 469.515625 910.710938 470.105469 C 950.445312 499.097656 969.65625 531.71875 979.699219 565.960938 Z M 979.699219 565.960938 "/><path style=" stroke:none;fill-rule:nonzero;fill:#ffbd59;fill-opacity:1;" d="M 976.46875 576.105469 C 971.070312 580.492188 965.328125 584.519531 959.253906 588.195312 C 946.304688 548.03125 926.222656 513.871094 894.113281 489.847656 C 901.3125 481.648438 906.925781 474.386719 908.394531 470.753906 C 908.765625 469.839844 909.890625 469.507812 910.6875 470.089844 C 950.441406 499.085938 969.65625 531.714844 979.699219 565.964844 C 980.789062 569.679688 979.472656 573.664062 976.46875 576.105469 Z M 976.46875 576.105469 "/><path style=" stroke:none;fill-rule:nonzero;fill:#000000;fill-opacity:1;" d="M 921.453125 621.066406 C 940.734375 606.339844 959.738281 594.976562 977.863281 594.066406 C 980.347656 593.945312 982.746094 595.070312 984.1875 597.097656 C 1002.976562 623.546875 997.679688 644.996094 980.355469 663.949219 C 972.398438 668.953125 966.886719 667.292969 964.628906 656.78125 C 953.382812 666.695312 944.945312 663.414062 939.378906 646.648438 C 933.886719 653.5625 929.007812 654.804688 925.007812 647.867188 C 923.375 645.027344 922.570312 641.78125 922.503906 638.503906 C 922.429688 634.859375 921.621094 631.355469 919.921875 628.023438 C 918.699219 625.625 919.3125 622.699219 921.453125 621.066406 Z M 921.453125 621.066406 "/><path style=" stroke:none;fill-rule:nonzero;fill:#ffbd59;fill-opacity:1;" d="M 548.871094 423.328125 C 548.871094 423.328125 841.472656 402.785156 841.472656 402.785156 C 853.9375 513.382812 819.304688 621.765625 734.5625 648.636719 C 713.765625 655.234375 691.546875 655.6875 670.246094 650.953125 C 569.894531 628.648438 544.5625 539.246094 548.871094 423.328125 Z M 548.871094 423.328125 "/><path style=" stroke:none;fill-rule:nonzero;fill:#ffde59;fill-opacity:1;" d="M 568.574219 418.761719 C 568.574219 418.761719 828.664062 399.898438 828.664062 399.898438 C 839.746094 501.449219 808.960938 600.964844 733.636719 625.640625 C 715.148438 631.695312 695.394531 632.113281 676.460938 627.765625 C 587.261719 607.285156 564.742188 525.195312 568.574219 418.761719 Z M 568.574219 418.761719 "/><path style=" stroke:none;fill-rule:nonzero;fill:#000000;fill-opacity:1;" d="M 781.589844 472.125 C 790.964844 471.636719 801.457031 469.363281 812.699219 465.882812 C 815.652344 464.964844 818.667969 467.171875 818.699219 470.261719 C 818.914062 492.898438 815.765625 512.972656 808.953125 530.25 C 808.109375 532.390625 806.449219 534.128906 804.332031 535.035156 C 789.273438 541.464844 777.28125 541.511719 767.511719 536.9375 C 765.671875 536.078125 764.628906 534.09375 765.019531 532.097656 C 765.019531 532.097656 775.761719 477.199219 775.761719 477.199219 C 776.3125 474.371094 778.710938 472.273438 781.589844 472.125 Z M 781.589844 472.125 "/><path style=" stroke:none;fill-rule:nonzero;fill:#ff6d4d;fill-opacity:1;" d="M 782.191406 483.269531 C 782.191406 483.269531 779.203125 494.792969 779.203125 494.792969 C 779.003906 495.566406 779.628906 496.304688 780.421875 496.238281 C 780.421875 496.238281 809.90625 493.710938 809.90625 493.710938 C 810.4375 493.667969 810.871094 493.265625 810.953125 492.738281 C 810.953125 492.738281 812.835938 480.726562 812.835938 480.726562 C 812.953125 479.976562 812.328125 479.316406 811.570312 479.398438 C 811.570312 479.398438 783.191406 482.410156 783.191406 482.410156 C 782.710938 482.460938 782.3125 482.804688 782.191406 483.269531 Z M 782.191406 483.269531 "/><path style=" stroke:none;fill-rule:nonzero;fill:#ff6d4d;fill-opacity:1;" d="M 779.800781 502.773438 C 779.800781 502.773438 805.808594 500.90625 805.808594 500.90625 C 807.488281 500.785156 808.792969 502.351562 808.367188 503.984375 C 808.367188 503.984375 806.699219 510.414062 806.699219 510.414062 C 806.429688 511.445312 805.53125 512.1875 804.464844 512.253906 C 804.464844 512.253906 779.058594 513.828125 779.058594 513.828125 C 777.429688 513.929688 776.152344 512.445312 776.496094 510.847656 C 776.496094 510.847656 777.875 504.445312 777.875 504.445312 C 778.074219 503.523438 778.859375 502.84375 779.800781 502.773438 Z M 779.800781 502.773438 "/><path style=" stroke:none;fill-rule:nonzero;fill:#ff6d4d;fill-opacity:1;" d="M 777.722656 521.246094 C 777.722656 521.246094 802.925781 519.285156 802.925781 519.285156 C 804.074219 519.195312 804.972656 520.253906 804.695312 521.371094 C 804.695312 521.371094 802.820312 528.988281 802.820312 528.988281 C 802.640625 529.730469 801.984375 530.257812 801.222656 530.273438 C 801.222656 530.273438 775.660156 530.871094 775.660156 530.871094 C 774.476562 530.898438 773.632812 529.730469 774.03125 528.617188 C 774.03125 528.617188 776.265625 522.363281 776.265625 522.363281 C 776.488281 521.734375 777.058594 521.296875 777.722656 521.246094 Z M 777.722656 521.246094 "/><path style=" stroke:none;fill-rule:nonzero;fill:#000000;fill-opacity:1;" d="M 548.871094 423.328125 C 550.171875 460.089844 845.992188 452.074219 841.421875 400.988281 C 799.847656 358.0625 558.484375 385.929688 548.871094 423.328125 Z M 548.871094 423.328125 "/><path style=" stroke:none;fill-rule:nonzero;fill:#ffde59;fill-opacity:1;" d="M 755.667969 689.953125 C 755.027344 690.871094 754.144531 691.609375 753.125 692.074219 C 741.828125 697.234375 730.601562 700.792969 719.421875 702.769531 C 694.167969 707.238281 669.226562 703.597656 644.570312 692.09375 C 643.382812 691.539062 642.386719 690.609375 641.75 689.460938 C 638.277344 683.175781 637.320312 676.996094 638.742188 670.910156 C 639.535156 667.507812 642.992188 665.433594 646.382812 666.289062 C 672.589844 672.894531 698.777344 674.480469 724.941406 670.484375 C 734.214844 669.078125 743.488281 666.957031 752.765625 664.117188 C 756.617188 662.941406 760.59375 665.691406 760.835938 669.703125 C 761.3125 677.328125 759.75 684.140625 755.667969 689.953125 Z M 755.667969 689.953125 "/><path style=" stroke:none;fill-rule:nonzero;fill:#ffbd59;fill-opacity:1;" d="M 755.667969 689.953125 C 755.027344 690.871094 754.144531 691.609375 753.125 692.074219 C 741.828125 697.234375 730.601562 700.792969 719.421875 702.769531 C 730.613281 694.234375 733.597656 683.75 724.941406 670.484375 C 734.214844 669.078125 743.488281 666.957031 752.765625 664.117188 C 756.617188 662.941406 760.59375 665.691406 760.835938 669.703125 C 761.3125 677.328125 759.75 684.140625 755.667969 689.953125 Z M 755.667969 689.953125 "/><path style=" stroke:none;fill-rule:nonzero;fill:#ffde59;fill-opacity:1;" d="M 743.191406 725.34375 C 742.878906 726.652344 742.445312 727.957031 741.878906 729.246094 C 740.296875 732.914062 737.109375 735.679688 733.28125 736.820312 C 727.945312 738.417969 722.527344 739.730469 717.039062 740.777344 C 702.042969 743.636719 686.484375 744.472656 670.359375 743.371094 C 664.773438 742.992188 659.675781 739.992188 656.710938 735.25 C 655.171875 732.808594 654.191406 730.484375 653.832031 728.300781 C 652.988281 723.242188 657.113281 718.707031 662.234375 718.960938 C 682.703125 719.972656 702.300781 719.742188 720.640625 717.6875 C 725.257812 717.175781 729.785156 716.542969 734.230469 715.789062 C 739.773438 714.832031 744.464844 719.859375 743.191406 725.34375 Z M 743.191406 725.34375 "/><path style=" stroke:none;fill-rule:nonzero;fill:#ffbd59;fill-opacity:1;" d="M 743.191406 725.34375 C 742.878906 726.652344 742.445312 727.957031 741.878906 729.246094 C 740.296875 732.914062 737.109375 735.679688 733.28125 736.820312 C 727.945312 738.417969 722.527344 739.730469 717.039062 740.777344 C 721.632812 734.214844 723.253906 726.664062 720.640625 717.6875 C 725.257812 717.175781 729.785156 716.542969 734.230469 715.789062 C 739.773438 714.832031 744.464844 719.859375 743.191406 725.34375 Z M 743.191406 725.34375 "/><path style=" stroke:none;fill-rule:nonzero;fill:#ffde59;fill-opacity:1;" d="M 445.789062 489.78125 C 450.117188 452.578125 475.265625 424.195312 518.480469 385.171875 C 521.730469 382.234375 526.96875 382.628906 529.621094 386.023438 C 529.621094 386.023438 572.960938 441.429688 572.960938 441.429688 C 574.667969 443.613281 574.863281 446.539062 573.46875 448.929688 C 550.425781 488.484375 524.851562 518.316406 487.992188 523.105469 C 485.925781 523.375 485.550781 524.355469 480.84375 521.386719 C 480.84375 521.386719 448.390625 495.867188 448.390625 495.867188 C 446.496094 494.378906 445.519531 492.09375 445.789062 489.78125 Z M 445.789062 489.78125 "/><path style=" stroke:none;fill-rule:nonzero;fill:#000000;fill-opacity:1;" d="M 598.722656 337.589844 C 598.722656 337.589844 588.058594 329.097656 588.058594 329.097656 C 588.058594 329.097656 549.941406 376.964844 549.941406 376.964844 C 549.941406 376.964844 560.601562 385.457031 560.601562 385.457031 C 560.601562 385.457031 598.722656 337.589844 598.722656 337.589844 Z M 598.722656 337.589844 "/><path style=" stroke:none;fill-rule:nonzero;fill:#ff6d4d;fill-opacity:1;" d="M 663.601562 215.957031 C 626.75 199.460938 583.496094 215.957031 567 252.808594 C 550.503906 289.664062 567 332.917969 603.851562 349.414062 C 640.703125 365.921875 683.957031 349.414062 700.464844 312.5625 C 716.960938 275.710938 700.453125 232.457031 663.601562 215.957031 Z M 687.070312 306.5625 C 673.878906 336.027344 639.304688 349.210938 609.851562 336.027344 C 580.398438 322.835938 567.203125 288.261719 580.394531 258.808594 C 593.585938 229.355469 628.152344 216.164062 657.605469 229.355469 C 687.066406 242.546875 700.25 277.109375 687.070312 306.5625 Z M 687.070312 306.5625 "/><path style=" stroke:none;fill-rule:nonzero;fill:#ff6d4d;fill-opacity:1;" d="M 568.941406 372.503906 C 568.941406 372.503906 560.699219 365.9375 560.699219 365.9375 C 556.863281 362.886719 551.28125 363.519531 548.226562 367.351562 C 548.226562 367.351562 500.105469 427.78125 500.105469 427.78125 C 497.050781 431.617188 497.683594 437.199219 501.519531 440.253906 C 501.519531 440.253906 509.761719 446.816406 509.761719 446.816406 C 513.597656 449.871094 519.179688 449.238281 522.234375 445.402344 C 522.234375 445.402344 570.355469 384.976562 570.355469 384.976562 C 573.410156 381.140625 572.777344 375.558594 568.941406 372.503906 Z M 568.941406 372.503906 "/><path style=" stroke:none;fill-rule:nonzero;fill:#000000;fill-opacity:1;" d="M 543.746094 356.339844 C 511.132812 355.011719 502.824219 375.832031 498.84375 400.601562 C 498.261719 404.207031 498.738281 407.9375 500.335938 411.226562 C 500.378906 411.316406 500.421875 411.402344 500.464844 411.492188 C 505.488281 421.535156 518.429688 424.378906 527.597656 417.894531 C 539.332031 409.605469 548.640625 397.3125 555.355469 380.730469 C 556.535156 377.816406 556.9375 374.632812 556.53125 371.515625 C 555.347656 362.414062 551.855469 356.339844 543.746094 356.339844 Z M 543.746094 356.339844 "/><path style=" stroke:none;fill-rule:nonzero;fill:#000000;fill-opacity:1;" d="M 554.648438 417.269531 C 547.152344 428.652344 536.648438 434.964844 531.191406 431.367188 C 525.730469 427.773438 527.378906 415.628906 534.871094 404.246094 C 542.367188 392.863281 552.871094 386.554688 558.332031 390.148438 C 563.792969 393.746094 562.144531 405.886719 554.648438 417.269531 Z M 554.648438 417.269531 "/><path style="fill:none;stroke-width:7;stroke-linecap:round;stroke-linejoin:round;stroke:#ff6d4d;stroke-opacity:1;stroke-miterlimit:4;" d="M 13.484834 -14.68208 C 13.484834 -14.68208 -13.483918 7.692921 -13.483918 7.692921 C -13.483918 7.692921 13.484834 14.682505 13.484834 14.682505 " transform="matrix(0.75,0,0,0.75,737.444969,276.710778)"/><path style=" stroke:none;fill-rule:nonzero;fill:#ff6d4d;fill-opacity:1;" d="M 651.296875 287.09375 C 651.296875 295.136719 647.75 301.65625 643.375 301.65625 C 639 301.65625 635.457031 295.136719 635.457031 287.09375 C 635.457031 279.050781 639 272.527344 643.375 272.527344 C 647.75 272.527344 651.296875 279.050781 651.296875 287.09375 Z M 651.296875 287.09375 "/></g></svg>